<?xml version="1.0" encoding="UTF-8"?>
<svg id="Calque_2" data-name="Calque 2" xmlns="http://www.w3.org/2000/svg" viewBox="0 0 1077.98 568.19">
  <defs>
    <style>
      .cls-1 {
        fill: #a6a6a6;
        stroke-width: 0px;
      }
    </style>
  </defs>
  <g id="Layer_1" data-name="Layer 1">
    <g>
      <g>
        <g>
          <g>
            <path class="cls-1" d="M366.83,515.15c.07,2.34.25,4.73.36,7.04-.05.03-.11.05-.16.07l-.13.04c-1-2.2-2.58-3.94-4.06-5.73-.85-2.53-1.96-5.86-3.1-9.23-4.7-14.22-4.67-15.31-4.66-15.96,0-.57-.36-2.47-.91-5.02l-.93,7.35c-.14,1.09-1,1.91-2.03,1.95-1.04.03-1.93-.74-2.12-1.82l-1.06-6.01-.99,3.91c-.27,1.05-1.21,1.75-2.23,1.65-1.02-.1-1.82-.97-1.9-2.06l-.24-3.48-1.43,5.86c-.25,1.05-1.17,1.75-2.19,1.68-1.01-.07-1.83-.9-1.94-1.98-.78-7.31-1.86-15.58-2.38-17.23-.38-.52-1.07-1.62-2.78-4.36-1.37-2.2-3.68-5.9-5.82-9.15-1.39-3.04-2.77-6.06-4.02-9.17,2.13,3.14,4.56,5.98,8.01,7.44,1.44,2.21,3.19,4.96,5.33,8.4,1.14,1.82,2.31,3.7,2.6,4.09.47.53.9,1.15,1.84,7.94l1.89-7.77c.26-1.06,1.2-1.77,2.23-1.67,1.03.1,1.83.97,1.91,2.06l.27,3.91.17-.68c.26-1.01,1.12-1.69,2.11-1.66.98.04,1.8.79,1.99,1.82l.35,1.98.67-5.28c.13-1.06.95-1.87,1.96-1.94,1.01-.07,1.91.63,2.16,1.66.86,3.52,3.65,15.07,3.68,17.57.23,1.81,4.16,13.82,7.54,23.77ZM359.29,491.48v-.07s0,.07,0,.07Z"/>
            <path class="cls-1" d="M377.08,461.88c-8.15,10.44-18.72,23.95-23.26,29.66-.99-4.53-2.45-13.22-3.62-21.17-.16-1.08-1.04-1.89-2.07-1.89-1.03,0-1.92.79-2.09,1.87l-1.91,12.01-1.88-13.34c-.15-1.03-.94-1.82-1.92-1.9-.98-.08-1.88.58-2.17,1.58l-6.17,21.35c-3.87,7.73-9.64,19.12-12.54,24.58-.46,2.11-1.13,4.16-1.32,6.31.23.17.48.29.75.36.99-.64,1.94-1.31,2.87-1.98.91-1.6,2.8-5.17,7.09-13.59,3.47-6.88,6.92-13.71,6.95-13.77.06-.13.12-.26.15-.4l3.51-12.15,2.46,17.48c.15,1.09,1.02,1.89,2.06,1.9,1.03,0,1.92-.79,2.09-1.87l2.04-12.81c.58,3.37,1.1,6.1,1.54,8.12.86,3.95,1.34,5.25,2.67,5.73.78.28,1.64.07,2.24-.54,1.09-1.11,20.51-25.99,26.52-33.69.4-.97.84-1.92,1.29-2.86-1.74.37-3.52.64-5.29.98Z"/>
          </g>
          <g>
            <g>
              <path class="cls-1" d="M1046.72,396.98c2.11.26,4.21.48,6.31.61l-.81,1.26-.08.05c-8.25,4.66-16.55,9.27-24.84,13.85-.32.18-.69.28-1.07.28l-7.14.14,9.45,3.55c.95.36,1.53,1.27,1.42,2.22-.1.95-.88,1.71-1.89,1.83l-15.73,1.99,10.95,7.88,2.58.1c1.08.04,1.99.81,2.15,1.83.07.47-.02.93-.25,1.32l1.69,1.22c.83.6,1.12,1.66.7,2.56-.42.89-1.44,1.39-2.46,1.19l-8.65-1.67c-3.11.98-6.88,2.18-10.7,3.44-15.89,5.23-19.27,7.06-19.93,7.56-.42.76-1.32,1.21-2.29,1.08-.47-.07-.89-.27-1.22-.56,1-1.54,1.79-3.21,2.54-4.88,1.08-.54,2.51-1.15,4.41-1.9,3.32-1.31,7.9-2.93,13.63-4.83,1.63-.53,3.26-1.07,4.84-1.59l-7.66-1.48c-1.15-.22-1.93-1.23-1.81-2.31.13-1.08,1.12-1.89,2.28-1.84l12.42.49-10.21-7.34c-.72-.52-1.05-1.39-.84-2.21.22-.82.94-1.43,1.83-1.54l12.67-1.61-11.8-4.43c-.99-.37-1.58-1.35-1.41-2.33.17-.98,1.06-1.7,2.12-1.72l17.54-.36c7.1-3.92,14.17-7.87,21.24-11.84ZM988.65,447.51h0s0,0,0,0Z"/>
              <path class="cls-1" d="M1053.19,397.35v-.03s-.17.27-.17.27h.12c.02-.07.04-.16.05-.24Z"/>
              <path class="cls-1" d="M1053.03,397.59l-.81,1.26c.48-.3.8-.75.93-1.25h-.12Z"/>
            </g>
            <path class="cls-1" d="M997.22,395.34c.49,1.14.94,2.3,1.32,3.48l20.51,12.02-13.98,1.05c-1.01.08-1.83.78-1.99,1.72-.16.94.38,1.87,1.31,2.28l15.38,6.65-16.05.42c-.85.02-1.6.49-1.95,1.21-.35.72-.23,1.57.3,2.19l17.73,20.86,17.59,21.05c1.98.3,3.96.6,5.95.86-.05-.37-.2-.74-.47-1.06l-17.19-20.6-17.32-20.41,21.1-.54c1.04-.03,1.91-.73,2.1-1.69.19-.96-.35-1.93-1.3-2.35l-16.24-7.03,12.14-.91c.96-.07,1.75-.72,1.97-1.6.22-.88-.19-1.81-1.01-2.29l-23.52-13.79c-2.09-.46-4.15-1.02-6.15-1.75-.08.07-.15.14-.22.23Z"/>
          </g>
          <g>
            <path class="cls-1" d="M1023.07,211.95c-1.12.16-1.94,1.08-1.89,2.14.05,1.07.94,1.93,2.08,2.02l9.95.75-10.27,2.67c-.95.24-1.6,1.04-1.62,1.96-.02.92.61,1.75,1.55,2.05l11.55,3.65-11.8,1.08c-1.04.09-1.87.85-1.99,1.82-.12.97.49,1.9,1.48,2.23l16.15,5.49c-10.06,4.2-20.11,8.35-30.2,12.46-.33.14-.61.34-.82.58,1.61.8,3.22,1.6,4.85,2.36l16.57-6.79,16.53-6.87c.83-.35,1.35-1.14,1.31-2-.04-.86-.63-1.62-1.49-1.91l-12.04-4.09,12.28-1.12c1.05-.1,1.88-.87,1.99-1.86.11-.99-.52-1.92-1.53-2.24l-14.5-4.58,15.38-4.01c1.04-.27,1.72-1.22,1.61-2.24-.11-1.02-.99-1.82-2.07-1.9l-2.9-.22,30.79-4.36c1.32-.95,2.64-1.9,3.96-2.85-2.29-.29-4.55-.65-6.85-1.03-16.03,2.31-32.05,4.58-48.07,6.8Z"/>
            <path class="cls-1" d="M1013.05,178.18l15.53,15.68c5.18,5.25,10.35,10.52,15.48,15.81l-23.24,7.77c-.95.32-1.55,1.2-1.46,2.15.09.95.86,1.73,1.86,1.89l14.04,2.35-13.19,4.56c-.96.33-1.55,1.22-1.44,2.17.11.95.89,1.72,1.9,1.87l8.01,1.18-8.52,1.05c-1.05.13-1.85.92-1.92,1.92-.07.99.61,1.9,1.64,2.17l30.3,8.25c-.46-1.57-.87-3.15-1.25-4.73l-17.51-4.75,13.26-1.64c1.1-.14,1.92-1.02,1.93-2.07,0-1.05-.81-1.95-1.91-2.11l-14.79-2.16,12.81-4.44c.94-.33,1.53-1.22,1.43-2.17-.1-.95-.86-1.72-1.86-1.89l-13.8-2.3,18.4-6.16c.7-.24,1.23-.79,1.41-1.47.18-.68-.02-1.41-.53-1.93-9.94-10.26-20.01-20.45-30.03-30.54-2.39-.57-4.77-1.23-7.16-1.93,0,.53.19,1.06.61,1.48Z"/>
          </g>
          <g>
            <path class="cls-1" d="M186.13,457.23c-.42.25-.76.66-.93,1.18l-11.42,33.31c-.08-.51-.16-1.03-.24-1.55-.45-2.93-.83-5.27-1.12-6.95-.18-1.03-.32-1.8-.44-2.35-.07-.34-.13-.59-.19-.79-.52-1.83-1.96-1.82-2.25-1.8-.94.07-1.97.85-2,2.4-.02,1.14-.72,6.56-1.52,12.41l-4.49-15.83c-.28-1-1.18-1.66-2.16-1.58-.98.07-1.78.85-1.94,1.88l-1.6,10.62-2.24-10.93c-.22-1.05-1.11-1.8-2.12-1.76-1.01.04-1.86.84-2.02,1.9l-1.2,8.24-2.29-22.7c-.07-.68-.41-1.25-.9-1.6l-.2.26c-.07.09-.14.18-.15.26l-.18.52-.38,1.06c-.26.71-.54,1.43-.83,2.17-.09,6.23.11,12.5.61,18.77.55,6.27,1.24,12.5,1.85,18.75.11,1.12.99,1.97,2.04,1.99,1.06.02,1.97-.79,2.13-1.9l1.92-13.24,2.2,10.74c.21,1.05,1.1,1.79,2.11,1.76,1.01-.03,1.86-.83,2.02-1.89l1.92-12.71,4.56,16.07c.26.93,1.06,1.57,1.96,1.59.07,0,.13,0,.2,0,.98-.08,1.78-.87,1.93-1.9.12-.86.63-4.5,1.22-8.64.31,2.07.61,4.13.89,5.97.15,1.01.92,1.78,1.87,1.88.95.09,1.85-.51,2.18-1.47l12.19-35.55c-1.01-2.79-.94-5.71-1-8.58Z"/>
            <path class="cls-1" d="M184.14,496.09l-9.39-16.24c-.49-.84-1.44-1.24-2.34-.98-.9.26-1.53,1.12-1.55,2.11l-.08,3.69-1.45-7.09c-.2-.99-1-1.71-1.96-1.75-.95-.05-1.81.59-2.1,1.56l-3.85,12.79-2.72-12.84c-.18-.84-.8-1.5-1.59-1.69s-1.62.13-2.12.81l-6.33,8.66-3.17,4.33c-.53.72-1.05,1.45-1.59,2.15-.55.7-1.13,1.4-1.73,2.09s-1.22,1.39-1.87,2.08l-.98,1.03c-.33.33-.67.65-1.01.97-1.37,1.28-2.84,2.54-4.4,3.78-1.55,1.19-3.18,2.29-4.9,3.39-1.73,1.12-3.51,2.08-5.38,3.01-.67,1.29-1.37,2.58-1.61,3.94.9.01,1.82.05,2.74.09.92.06,1.87.01,2.8,0,1.67-.95,3.27-1.91,4.8-2.94,1.54-1.08,3.01-2.18,4.4-3.31.7-.57,1.37-1.11,2.04-1.72.66-.61,1.31-1.22,1.94-1.84.63-.62,1.24-1.23,1.83-1.86l.87-.93c.29-.31.58-.62.79-.95l11.34-15.5,3.44,16.24c.21.98,1.01,1.7,1.96,1.74.94.04,1.81-.6,2.1-1.56l3.82-12.68,3.54,17.22c.23,1.11,1.2,1.86,2.26,1.74,1.06-.11,1.88-1.05,1.9-2.18l.32-14.81,4.88,8.43c1.53,0,3.07-.23,4.6-.44-.05-.19-.13-.38-.23-.56Z"/>
          </g>
          <g>
            <path class="cls-1" d="M572.53,485.22c-.12-1.03-.88-1.84-1.85-1.95-.97-.12-1.89.49-2.22,1.47l-2.64,7.74.47-5.27c.1-1.1-.57-2.11-1.58-2.38-1-.27-2.05.28-2.45,1.3l-4.51,11.25-1.62-12.56c-.13-1.03-.91-1.82-1.88-1.92-.97-.1-1.88.52-2.2,1.5l-5.44,16.66-23.31-29.22c-1.78-.24-3.57-.44-5.39-.48.03.45.19.9.49,1.27l27.38,34.32c.49.61,1.25.9,1.99.75.74-.15,1.35-.71,1.6-1.47l3.77-11.54,1.46,11.33c.13,1,.87,1.78,1.8,1.91.94.13,1.84-.42,2.22-1.35l2.18-5.44-.76,8.48c-.1,1.12.6,2.15,1.63,2.39,1.03.25,2.08-.37,2.44-1.43l5.27-15.47,4.11,36.68c1.44.4,2.91.74,4.36,1.12l-5.34-47.7Z"/>
            <path class="cls-1" d="M596.9,463.89c-.2.15-.48.37-.85.65-.65.52-1.61,1.28-2.85,2.27-2.06,1.67-4.94,3.99-8.55,6.9-6.12,4.98-12.33,10.03-12.39,10.08-.36.29-.62.7-.74,1.16l-4.43,16.44-4.76-18.6c-.24-.95-1.03-1.61-1.96-1.64-.92-.03-1.76.58-2.06,1.5l-6.46,19.64c-.67-2.18-1.45-4.72-2.24-7.28-4.5-14.37-5.38-15.35-5.9-15.93-.52-.57-1.27-.84-2.01-.71-1.99.34-3.39,2.03-17.34,32.84-1.62,3.55-3.27,7.17-4.54,9.97.59,2.16,1.04,4.35,1.57,6.53.95-1.78,2.73-5.64,6.76-14.56,2.9-6.41,6.19-13.67,9.03-19.63,2.2-4.6,3.61-7.3,4.5-8.88,1.82,4.88,5.18,15.58,8.05,25.41.27.92,1.06,1.55,1.96,1.57h.01c.91.01,1.72-.59,2.02-1.5l6.31-19.18,4.96,19.37c.24.96,1.05,1.62,1.98,1.65h.03c.94,0,1.78-.66,2.04-1.63l6.32-23.43c7.02-5.73,16.57-13.48,21.27-17.24.57-2.09,1.12-4.21,1.59-6.34-.39.05-.83.22-1.33.59Z"/>
          </g>
          <g>
            <path class="cls-1" d="M728.9,491.3c-.1-1.07-.9-1.92-1.91-2.01-1.01-.09-1.94.6-2.21,1.64l-2.04,7.78-2.58-8.09c-.31-.96-1.18-1.58-2.13-1.51-.95.07-1.74.81-1.93,1.8l-1.47,7.87-2.78-6.65c-.37-.89-1.24-1.42-2.15-1.31-.91.11-1.65.83-1.84,1.78l-.6,3.08c-1.53-6.87-3.08-14-3.86-17.98-1.41-1.47-2.78-2.98-4.27-4.37-.27.37-.43.82-.44,1.32-.05,2.18,4.66,23,6.68,31.85.23,1.02,1.1,1.72,2.08,1.7.98-.02,1.82-.77,2.02-1.79l1.18-6.08,2.81,6.72c.37.89,1.25,1.42,2.16,1.31.91-.11,1.65-.84,1.83-1.79l1.23-6.58,2.24,7.04c.3.93,1.13,1.54,2.05,1.51.92-.03,1.72-.7,1.97-1.64l.84-3.22,1.95,21.18c1.49.61,2.96,1.26,4.41,1.96l-3.26-35.51Z"/>
            <path class="cls-1" d="M756.51,473.74c-.77,2.42-1.5,4.87-2.04,7.36-6.83,6.13-21.32,19.15-31.76,28.52-.54.48-1.26.65-1.93.45-.67-.2-1.21-.75-1.42-1.46l-3.01-9.83-.06,2.89c-.02.97-.63,1.82-1.5,2.1-.87.28-1.82-.07-2.33-.87l-1.11-1.72c-8.92,6.1-21.73,14.94-22.87,15.9-.23.22-.5.38-.79.47.27-2,.59-3.99.93-5.98,5.08-3.61,15.39-10.69,22.17-15.33.44-.3.94-.4,1.42-.34l.23-10.35c.02-1.09.78-2.01,1.8-2.17,1.02-.16,1.99.48,2.31,1.52l5.86,19.15c3.25-2.92,9.35-8.4,15.45-13.89,5.19-4.65,9.32-8.36,12.28-11.01,1.68-1.5,3.08-2.75,4.06-3.62.5-.44.89-.78,1.15-1.02.14-.12.25-.22.33-.28.29-.24.57-.39.84-.48ZM688.52,517.03l-.04.04.04-.04Z"/>
          </g>
          <g>
            <path class="cls-1" d="M921.4,491.35c-.35-.93-1.25-1.49-2.18-1.38-.94.11-1.69.88-1.84,1.87l-1.33,8.67-1.98-7.37c-.25-.93-1.03-1.58-1.94-1.62-.91-.03-1.74.55-2.06,1.46l-2.43,6.92-2.06-9.73c-.21-1-1.03-1.71-1.99-1.74h-.01c-.95-.02-1.8.64-2.07,1.62l-3.66,13.47-27.81-24.95c-1.61.41-3.2.9-4.75,1.5.1.16.23.31.37.44l31.95,28.67c.54.49,1.29.65,1.97.43.68-.22,1.21-.8,1.41-1.52l2.29-8.42,1.82,8.57c.2.97.98,1.67,1.91,1.74.93.06,1.79-.53,2.11-1.46l2.66-7.58,2.81,10.46c.27,1.01,1.16,1.68,2.15,1.62.98-.06,1.8-.85,1.95-1.88l1.64-10.69,15.52,40.64c.84-1.7,1.72-3.39,2.6-5.09l-17.04-44.62Z"/>
            <path class="cls-1" d="M937.51,508.11c-4.62-3.72-8.38-6.61-11.18-8.6-4.67-3.3-6.87-4.42-8.46-2.8-.88.89-1.75,2.72-2.74,5.24-1.36-6.55-2.69-8.31-3.57-9.06-.79-.67-1.73-.91-2.64-.67-1.75.46-3.36,2.49-6.03,11.19-.11.36-.22.72-.32,1.07l-2.58-11.4c-.2-.89-.9-1.56-1.75-1.69-.86-.13-1.7.32-2.12,1.12l-17.83,33.68c.77,1.62,1.5,3.26,2.23,4.9l16.63-31.43,3.19,14.14c.22.99,1.04,1.69,2,1.71h.04c.97,0,1.81-.7,2.05-1.69,0-.02.26-1.03.64-2.56.4-1.53.95-3.59,1.59-5.7,1.34-4.47,2.29-6.79,2.89-7.98.41,1.04.95,2.78,1.51,5.48.69,3.34,1.04,6.35,1.04,6.89-.03,1.41.85,2.22,1.73,2.41,1.77.37,2.47-1.4,2.8-2.24.24-.6.53-1.42.88-2.37.61-1.69,1.88-5.2,2.75-6.93,1.53.82,5.6,3.46,16.03,11.92,3.48,2.82,6.84,5.63,9.43,7.81,1.97-.43,3.96-.61,5.95-.69-2.61-2.22-8.34-7.07-14.14-11.74Z"/>
          </g>
        </g>
        <g>
          <path class="cls-1" d="M91.23,455.41c-.1-.53-.2-1.06-.3-1.57l4.39-.98c.11.57.22,1.14.33,1.74,1.3,6.76,4.09,11.71,7.09,15.31.38.45.77.88,1.14,1.3.37.42.75.83,1.17,1.18.81.73,1.61,1.42,2.4,2.06.81.63,1.67,1.16,2.49,1.69.41.26.82.52,1.22.77.43.22.86.44,1.29.66-.8-1-1.51-2.15-2.31-3.28-.83-1.1-1.55-2.37-2.4-3.62-.44-.61-.83-1.29-1.23-1.98-.41-.69-.84-1.39-1.3-2.1-.4-.75-.82-1.51-1.26-2.3-.22-.39-.45-.79-.68-1.19-.2-.42-.41-.84-.62-1.27-1.9-3.55-3.09-6.77-4.33-9.63l4.41-.98c1.15,2.59,2.25,5.48,3.93,8.6,2.58,5.03,5.06,8.81,7.34,12.16,2.3,3.32,4.39,6.3,6.86,8.95.4.13.81.26,1.22.4.4.14.85.22,1.27.34.86.22,1.72.46,2.59.71,1.81.36,3.64.89,5.67,1.23.5.11,1.01.21,1.52.32.52.09,1.06.15,1.6.24,1.09.16,2.2.41,3.39.5,1.18.12,2.4.35,3.7.39.65.05,1.31.1,1.98.16.33.04.69.06,1.08.07.38.02.76.04,1.15.06,7.71.46,13.6,1.44,18.66,2.5.33-.11.67-.21,1-.32,5.37-1.74,10.45-3.38,20.21-3.03,9.96.35,15.61,2.43,21.08,4.44l.12.04c4.99-1.08,9.91-2.03,17.54-1.91,7.74.12,11.89,1.28,16.29,2.51,1.02.28,2.05.57,3.14.85.59-.19,1.17-.38,1.74-.56,5.17-1.69,10.51-3.44,19.87-2.94,7.76.42,12.99,2.06,17.73,3.84,7.61-1.25,15.69-2.36,27-1.13,3.29.36,6.66,1.61,10.23,2.93.22.08.45.17.68.25,1.65-.52,3.27-1.07,4.85-1.59,6.34-2.12,12.34-4.12,16.87-3.9,4.55.22,7.04,1.89,9.45,3.51.45.3.89.6,1.36.89,4.73-1.75,9.16-3.25,12.82-3.17,7.37.16,12.32,2.67,17.11,5.09l.41.21c4.98-.92,10.17-1.86,19.09-1.5,3.75.15,6.75.41,9.3.74,3.62.46,6.32,1.06,8.95,1.64l.91-.39c5.74-2.45,11.68-4.99,21.81-4.89,6.56.07,11.03,1.2,14.96,2.71,1.62.62,3.16,1.31,4.7,2.02,4.41-.83,9.36-1.53,16.42-1.52,10.85.01,16.61,1.69,22.3,3.57l.7.23.57.19c.85.28,1.71.56,2.59.85.41-.12.81-.25,1.22-.37,4.41-1.35,9.22-2.82,15.8-3.66l-.1,4.52c-3.28.44-6.1,1.05-8.68,1.73,2.47.52,5.28.97,8.62,1.33l-.1,4.49c-7.47-.78-12.56-2.07-16.8-3.38-5.07,1.51-10.27,2.76-17.67,2.59-1.34-.03-2.75-.11-4.24-.24-.28-.03-.57-.05-.86-.08-2.54-.25-4.81-.6-6.86-1.03-4.61-.95-8.11-2.26-11.18-3.59-.77-.34-1.51-.68-2.24-1-.7.14-1.41.28-2.11.42l-.43.09c-5.87,1.18-12.04,2.37-22.72,2.05-4.73-.14-8.23-.52-11.15-1-.16-.03-.32-.05-.48-.08-.64-.11-1.25-.22-1.84-.34-.97-.19-1.88-.39-2.78-.58-5.19,2.16-10.91,4.12-19.95,3.96h-.19c-8.07-.18-13.5-2.52-18.18-4.85-5.26.96-10.54,1.76-20,.9-4.69-.43-7.78-1.55-10.12-2.8-5.76,2.15-11.71,4.37-16.86,4.28h-.1c-5.76-.13-10.8-1.74-15.3-3.37-5.69,1.75-11.63,3.2-17.08,3.01-8.72-.3-14.26-2.46-19.61-4.56-.51-.2-1.02-.4-1.53-.59l-.81.13c-8.42,1.4-17.13,2.85-29.77,1.11-3.32-.46-5.96-1-8.23-1.56-4.48,1.38-9.58,2.55-17.62,2.38h-.13c-9.06-.2-14.55-1.99-19.62-3.84-2.92.63-5.94,1.29-9.69,1.79-12.13,1.63-19.4-.03-27.81-1.96-1.42-.32-2.88-.64-4.41-.99-4.37,1.37-9.57,2.75-17.93,3.24-.83.05-1.63.09-2.42.11-.2,0-.38.02-.59.01-.22,0-.43,0-.65-.01-.43-.01-.86-.03-1.28-.04-.84-.03-1.66-.08-2.45-.13-.79-.09-1.56-.23-2.31-.35-.75-.13-1.48-.27-2.18-.42-.7-.17-1.38-.4-2.04-.6-1.32-.42-2.57-.83-3.71-1.41-1.14-.56-2.25-1.06-3.25-1.7-1-.64-1.95-1.29-2.86-1.94-.9-.67-1.72-1.43-2.54-2.14-.4-.36-.81-.71-1.19-1.09l-1.11-1.18c-.85-.29-1.69-.57-2.53-.85-.82-.34-1.62-.67-2.43-1-4.39-1.91-8.67-4.37-12.71-8.57-.96-1.08-1.96-2.23-2.92-3.5-.45-.66-.9-1.34-1.35-2.05-.22-.36-.45-.72-.68-1.08-.11-.18-.23-.37-.34-.56-.1-.19-.2-.39-.3-.59-.4-.79-.79-1.61-1.18-2.46-.19-.43-.4-.85-.58-1.3-.16-.45-.32-.91-.49-1.38-.32-.94-.64-1.91-.95-2.9-.24-1.02-.47-2.07-.69-3.16ZM471.96,497.53c.94.31,1.94.61,3,.89,2.57.67,5.53,1.23,9.1,1.58.85.08,1.66.15,2.45.2.79.05,1.55.08,2.29.1,3.7.09,6.78-.2,9.61-.72-4.63-1.39-9.68-2.42-18.12-2.43-2.66,0-4.99.09-7.1.26-.42.04-.83.07-1.23.11ZM429.56,496.27c.68.09,1.4.17,2.16.25.56.05,1.15.1,1.76.16.41.03.83.06,1.26.09,1.08.07,2.24.12,3.5.16,6.09.18,10.57-.13,14.43-.66,1.13-.16,2.21-.33,3.25-.52-3-.99-6.39-1.67-10.96-1.78-.26,0-.53,0-.8-.01-6.23-.07-10.67.93-14.6,2.32ZM391.75,497.19c2.85.94,6.1,1.61,10.08,1.7h.17c4.49.08,8.05-.39,11.16-1.18-2.69-.39-5.9-.7-10.08-.87-4.65-.19-8.24,0-11.33.35ZM359.91,494.32c1.16.28,2.48.49,4.02.63,5.19.47,9.06.41,12.37.1-2.83-1.13-5.91-1.93-9.75-2.02-1.85-.04-4.13.49-6.64,1.28ZM328.4,495.17c2.58.69,5.31,1.18,8.18,1.25h.08c3.48.07,7.72-1.23,12.02-2.78-1.61-.99-3.25-1.7-5.87-1.83-3.57-.18-8.81,1.49-14.41,3.36ZM292.26,494.06c3.37,1.05,7.12,1.83,12,2,2.99.1,6.24-.37,9.55-1.13-1.34-.39-2.63-.69-3.85-.82-6.91-.75-12.58-.58-17.7-.05ZM253.55,492.26c7.77,1.02,13.87.78,19.54.1-2.27-.46-4.78-.8-7.65-.95-4.99-.27-8.68.14-11.89.85ZM216.5,491.88c2.8.59,6.01,1,10,1.09h.13c3.09.07,5.72-.09,8.04-.38-2.7-.57-5.78-.98-10.12-1.05-3.1-.05-5.7.08-8.05.34ZM173.73,489.86c6.84,1.49,13.09,2.4,22.85,1.09.55-.08,1.09-.16,1.61-.23-3.36-.9-7.26-1.57-12.46-1.75-5.14-.18-8.82.21-12,.89ZM128.97,487.65c.55.3,1.11.59,1.7.88.58.29,1.18.6,1.83.81.64.23,1.3.46,1.98.68.68.23,1.39.45,2.13.57,1.49.27,3.06.64,4.77.66.85.04,1.73.07,2.63.08.88-.02,1.77-.06,2.71-.11,2.62-.15,4.89-.39,6.92-.7-2.4-.3-5.01-.54-7.87-.71-1.69-.07-3.3-.25-4.84-.33-.77-.02-1.51-.14-2.24-.23-.73-.09-1.44-.17-2.13-.25-.7-.05-1.36-.22-2.02-.32-.66-.11-1.31-.21-1.94-.31-.64-.07-1.24-.24-1.85-.36-.61-.12-1.2-.24-1.78-.36Z"/>
          <path class="cls-1" d="M524.61,505.71c-.47-.05-.92-.09-1.37-.14l.1-4.49c.54.05,1.09.11,1.65.17,12.78,1.18,20.37-.22,27.66-2.02-4.98-1.16-10.78-1.99-18.61-1.92-4.09.03-7.57.3-10.63.71l.1-4.52c3.07-.39,6.53-.64,10.51-.67,12.75-.11,20.32,2.05,27.5,4.21,6.91-1.56,14.95-2.71,27.38-1.97,7.71.46,13.6,1.44,18.66,2.5.33-.11.67-.21,1-.32,5.37-1.74,10.45-3.38,20.21-3.03,9.96.35,15.61,2.43,21.08,4.44l.12.04c4.99-1.08,9.91-2.03,17.54-1.91,7.74.12,11.89,1.28,16.29,2.51,1.02.28,2.05.57,3.14.85.59-.19,1.17-.38,1.74-.56,5.17-1.69,10.51-3.44,19.87-2.94,7.76.41,12.99,2.06,17.73,3.84,7.61-1.25,15.69-2.36,27-1.13,3.29.36,6.66,1.6,10.23,2.93.22.08.45.17.68.25,1.65-.52,3.27-1.07,4.85-1.59,6.34-2.12,12.34-4.12,16.87-3.9,4.55.22,7.04,1.89,9.45,3.51.44.3.89.6,1.36.89,4.73-1.75,9.16-3.25,12.82-3.17,7.37.16,12.32,2.67,17.11,5.09l.41.21c4.98-.92,10.17-1.86,19.09-1.5,3.75.15,6.75.41,9.3.74,3.62.46,6.32,1.06,8.95,1.64l.91-.39c5.74-2.45,11.68-4.99,21.81-4.89,6.56.07,11.03,1.2,14.96,2.71,1.62.62,3.16,1.31,4.7,2.02,4.41-.83,9.36-1.53,16.42-1.52,10.85.01,16.61,1.69,22.3,3.57l.7.23.57.19c.85.28,1.71.56,2.59.85.41-.12.81-.25,1.22-.37,4.4-1.38,9.29-2.74,15.62-3.81l.09,4.52c-3.26.57-6.09,1.2-8.69,1.89,2.48.51,5.33.96,8.75,1.18l.09,4.49c-3.96-.23-7.2-.76-9.94-1.34-2.74-.58-5.07-1.23-7.19-1.89-5.07,1.51-10.27,2.76-17.67,2.59-1.34-.03-2.75-.11-4.24-.24-.28-.03-.57-.05-.86-.08-2.54-.25-4.81-.6-6.86-1.03-4.61-.95-8.11-2.26-11.18-3.59-.77-.34-1.51-.68-2.24-1-.7.14-1.41.28-2.11.42l-.43.09c-5.87,1.18-12.04,2.37-22.72,2.05-4.73-.14-8.23-.52-11.15-1-.16-.03-.32-.05-.48-.08-.64-.11-1.25-.22-1.84-.34-.97-.19-1.88-.39-2.78-.58-5.19,2.16-10.91,4.12-19.95,3.96h-.19c-8.07-.18-13.5-2.52-18.18-4.85-5.26.96-10.54,1.76-20,.9-4.69-.43-7.78-1.55-10.12-2.8-5.76,2.15-11.71,4.37-16.86,4.28h-.1c-5.76-.13-10.8-1.74-15.3-3.37-5.69,1.75-11.63,3.2-17.08,3.01-8.72-.3-14.26-2.46-19.61-4.56-.51-.2-1.02-.4-1.53-.59l-.81.13c-8.42,1.4-17.13,2.85-29.77,1.11-3.32-.46-5.96-1-8.23-1.56-4.48,1.38-9.58,2.55-17.62,2.38h-.13c-9.06-.2-14.55-1.99-19.62-3.84-2.92.63-5.94,1.29-9.69,1.79-12.13,1.63-19.4-.03-27.81-1.96-1.42-.32-2.88-.64-4.41-.99-4.37,1.37-9.57,2.75-17.93,3.24-13.24.77-20.67-1.41-28.45-3.76-1.64.38-3.23.79-4.8,1.19-8.62,2.2-16.77,4.27-31.95,2.87ZM914.83,507.24c.94.31,1.94.61,3,.89,2.57.67,5.53,1.23,9.1,1.58.85.08,1.66.15,2.45.2.79.05,1.55.08,2.29.1,3.7.09,6.78-.2,9.61-.72-4.63-1.39-9.68-2.42-18.12-2.43-2.66,0-4.99.09-7.1.26-.42.04-.83.07-1.23.11ZM872.44,505.98c.68.09,1.4.17,2.16.25.56.05,1.15.1,1.76.16.41.03.83.06,1.26.09,1.08.07,2.24.12,3.5.16,6.09.18,10.57-.13,14.43-.66,1.13-.16,2.2-.33,3.25-.52-3-.99-6.39-1.67-10.96-1.78-.26,0-.53,0-.8-.01-6.23-.07-10.67.93-14.6,2.32ZM834.63,506.9c2.85.95,6.1,1.61,10.08,1.7h.17c4.49.08,8.05-.39,11.16-1.18-2.69-.39-5.9-.7-10.08-.87-4.65-.19-8.24,0-11.33.35ZM802.78,504.03c1.16.28,2.48.49,4.02.63,5.19.47,9.06.41,12.37.1-2.83-1.13-5.91-1.94-9.75-2.02-1.85-.04-4.13.49-6.64,1.28ZM771.28,504.88c2.58.69,5.31,1.18,8.18,1.25h.08c3.48.07,7.72-1.23,12.02-2.78-1.61-.99-3.25-1.7-5.87-1.83-3.57-.18-8.81,1.49-14.41,3.36ZM735.14,503.77c3.37,1.05,7.12,1.83,12,2,2.99.1,6.24-.37,9.55-1.13-1.34-.39-2.63-.69-3.85-.82-6.9-.75-12.58-.58-17.7-.05ZM696.43,501.97c7.77,1.02,13.87.78,19.54.1-2.27-.46-4.78-.8-7.65-.95-4.99-.27-8.68.14-11.89.85ZM659.38,501.59c2.8.59,6.01,1,10,1.09h.13c3.09.07,5.72-.09,8.04-.38-2.7-.57-5.78-.98-10.12-1.05-3.1-.05-5.7.08-8.05.34ZM616.61,499.58c6.84,1.49,13.09,2.4,22.85,1.09.55-.08,1.09-.16,1.61-.23-3.36-.9-7.26-1.57-12.46-1.75-5.14-.18-8.82.21-12,.89ZM571.81,499.82c4.82,1,10.34,1.56,17.78,1.12,2.62-.15,4.89-.39,6.92-.7-2.4-.3-5.01-.54-7.87-.71-6.77-.4-12.19-.22-16.83.29Z"/>
          <path class="cls-1" d="M967.91,515.19c-.5-.02-.99-.04-1.47-.06l-.09-4.49c.55.02,1.12.05,1.7.08.82.04,1.63.04,2.42.03.79-.01,1.55-.01,2.35-.07.79-.05,1.55-.11,2.3-.18.74-.09,1.47-.19,2.17-.3.71-.1,1.39-.24,2.05-.39.66-.15,1.31-.29,1.93-.46,1.23-.39,2.42-.72,3.49-1.2,4.35-1.8,7.49-4.28,9.91-7.16-2.38,1.09-5.06,1.91-8,2.72-2.95.8-6.22,1.5-9.98,2.15-3.92.67-7.36,1.17-10.41,1.72l-.09-4.52c2.79-.47,5.91-.99,9.5-1.6,2.72-.49,5.14-.98,7.39-1.5.56-.15,1.11-.29,1.64-.43.27-.07.54-.13.8-.2.26-.08.52-.16.77-.24.52-.15,1.03-.29,1.52-.44.49-.17.98-.33,1.45-.5,3.82-1.3,7.11-2.87,9.95-4.98,1.3-3.21,2.2-6.75,3-10.74.83-4.07,1.45-8.23,2.61-14.44,1.4-7.57,3.08-13.3,4.75-18.19-.07-.34-.13-.69-.2-1.03-1.06-5.54-2.15-10.76-.67-20.4,1.5-9.83,4.13-15.22,6.74-20.43l.06-.11c-.52-5.07-.96-10.06-.06-17.63.92-7.67,2.5-11.68,4.14-15.94.38-.98.77-1.98,1.15-3.04-.13-.6-.26-1.2-.39-1.79-1.2-5.31-2.38-10.78-1.06-20.04,1.1-7.68,3.24-12.74,5.4-17.3-.3-3.84-.56-7.8-.47-12.19.04-2.19.17-4.5.43-6.95.24-2.45.6-5.06,1.13-7.85.61-3.24,2.12-6.51,3.71-9.96.1-.22.2-.44.3-.66-.4-1.68-.8-3.34-1.22-4.96-1.66-6.48-3.23-12.59-2.68-17.09.56-4.51,2.37-6.88,4.14-9.17.33-.42.65-.85.98-1.3-1.44-4.83-2.65-9.34-2.34-12.98.63-7.33,3.39-12.11,6.1-16.75l.23-.39c-.62-5.02-1.26-10.26-.45-19.14.35-3.74.77-6.72,1.23-9.25.64-3.59,1.35-6.26,2.06-8.85l-.35-.93c-2.2-5.85-4.42-11.88-3.93-21.98.33-6.53,1.65-10.96,3.3-14.82.68-1.6,1.42-3.1,2.17-4.62-.68-4.44-1.21-9.4-.97-16.45.31-10.83,2.14-16.54,4.18-22.18l.25-.7.21-.57c.3-.84.57-1.68.85-2.57-.13-.4-.29-.8-.43-1.2-.76-2.15-1.76-4.3-2.84-6.56-1.09-2.27-2.37-4.65-3.87-7.27l4.23-1.58c1.63,2.89,2.99,5.5,4.17,8.01.02-2.63-.33-5.64-1.3-9.09l4.21-1.58c1.22,4.19,1.6,7.86,1.57,11.02-.02,3.16-.52,5.83-1.08,8.17.79,2.89,1.37,5.34,1.78,8.25.4,2.88.59,6.04.4,9.75-.07,1.34-.18,2.75-.35,4.24-.03.28-.07.57-.1.86-.32,2.54-.74,4.8-1.24,6.84-1.11,4.59-2.54,8.05-3.97,11.07-.37.76-.73,1.49-1.08,2.21.12.71.23,1.42.35,2.13l.07.43c.98,5.91,1.9,12.13,1.16,22.81-.33,4.73-.89,8.21-1.5,11.11-.03.16-.07.32-.1.48-.14.63-.28,1.24-.42,1.82-.23.96-.47,1.86-.71,2.75.96,2.64,1.86,5.42,2.45,8.67.57,3.25.83,6.96.51,11.48v.19c-.31,4.03-1.12,7.38-2.17,10.28-1.07,2.9-2.38,5.36-3.68,7.63.63,5.31,1.18,10.64-.31,20.04-.73,4.66-2.06,7.67-3.45,9.92,1.79,5.9,3.57,12,3.1,17.13v.1c-.56,5.75-2.49,10.67-4.49,15.04,1.31,5.81,2.28,11.86,1.67,17.29-1.01,8.68-3.65,14.03-6.18,19.2-.24.49-.48.98-.72,1.47l.07.81c.34,4.26.65,8.59.54,13.42-.12,4.82-.65,10.15-2.14,16.36-.77,3.27-1.57,5.84-2.34,8.06.94,4.6,1.62,9.8.61,17.79l-.02.13c-1.12,9.01-3.47,14.29-5.87,19.14.31,2.97.63,6.05.72,9.84.29,12.25-2.25,19.3-5.11,27.44-.49,1.37-.99,2.79-1.52,4.27.83,4.5,1.57,9.84,1.04,18.22-.12,1.67-.27,3.27-.48,4.8-.11.76-.22,1.51-.36,2.24-.13.74-.3,1.55-.47,2.3-.7,3.03-1.62,5.67-2.72,7.98-1.09,2.31-2.38,4.28-3.79,6.01-1.4,1.73-2.94,3.23-4.63,4.53-.35.85-.77,1.63-1.17,2.44-.42.79-.9,1.53-1.36,2.3-2.6,4.12-6.16,7.59-11.38,10.27-2.63,1.28-5.67,2.41-9.24,3.08-1.78.33-3.69.61-5.72.75-.51.03-1.02.07-1.54.1-.48.01-.96.02-1.45.03-.98.02-1.97.02-2.98-.03ZM1042.63,144.32c.35-.93.68-1.92.99-2.97.76-2.55,1.42-5.49,1.86-9.05.11-.84.19-1.65.26-2.44.07-.79.13-1.55.17-2.29.19-3.69-.02-6.79-.45-9.63-1.52,4.6-2.69,9.62-2.93,18.05-.09,2.66-.07,4.99.03,7.11.02.42.05.83.07,1.23ZM1039.72,186.64c.12-.68.24-1.39.35-2.15.08-.56.15-1.14.24-1.75.05-.41.1-.82.15-1.25.12-1.08.22-2.23.31-3.49.43-6.08.29-10.57-.08-14.45-.11-1.13-.24-2.22-.39-3.27-1.1,2.96-1.92,6.32-2.22,10.88-.02.26-.03.53-.05.8-.3,6.22.5,10.69,1.69,14.68ZM1038.76,224.46c1.09-2.8,1.93-6.01,2.22-9.98v-.17c.33-4.48.04-8.07-.58-11.21-.53,2.67-1.01,5.86-1.4,10.03-.43,4.63-.43,8.23-.25,11.34ZM1033.97,256.09c.35-1.14.65-2.45.89-3.97.82-5.15.98-9.01.86-12.34-1.3,2.76-2.26,5.79-2.6,9.6-.16,1.84.22,4.15.85,6.71ZM1032.65,287.58c.87-2.53,1.56-5.21,1.83-8.08v-.08c.32-3.47-.66-7.79-1.92-12.18-1.08,1.54-1.92,3.12-2.23,5.73-.43,3.55.86,8.88,2.32,14.61ZM1028.69,323.54c1.32-3.28,2.43-6.95,2.99-11.8.34-2.98.12-6.26-.38-9.61-.5,1.31-.89,2.57-1.12,3.77-1.26,6.83-1.59,12.5-1.48,17.64ZM1023.47,361.95c1.77-7.64,2.04-13.75,1.88-19.45-.66,2.22-1.22,4.68-1.64,7.53-.71,4.94-.64,8.66-.25,11.92ZM1019.4,398.78c.88-2.72,1.61-5.88,2.11-9.84l.02-.12c.38-3.07.5-5.7.45-8.04-.85,2.63-1.57,5.66-2.08,9.96-.37,3.08-.5,5.68-.49,8.04ZM1012.65,441.07c2.25-6.62,3.93-12.73,3.68-22.58-.02-.56-.04-1.1-.06-1.63-1.26,3.25-2.34,7.04-3.13,12.19-.77,5.08-.81,8.78-.49,12.02ZM1006.12,485.56c1.24-2.13,2.29-4.61,3.09-7.56.81-2.99,1.29-6.21,1.54-9.95.17-2.62.2-4.91.15-6.96-.59,2.35-1.14,4.91-1.67,7.72-1.24,6.67-2.05,12.01-3.11,16.74Z"/>
        </g>
      </g>
      <g>
        <g>
          <g>
            <path class="cls-1" d="M767.06,39.91c-.11-2.34-.32-4.73-.47-7.04.05-.03.11-.05.16-.08l.13-.05c1.03,2.19,2.64,3.9,4.15,5.67.89,2.51,2.05,5.83,3.24,9.18,4.92,14.15,4.91,15.23,4.9,15.88.01.57.4,2.46.98,5l.82-7.36c.12-1.09.97-1.93,2-1.98,1.04-.04,1.94.71,2.15,1.79l1.15,5.99.93-3.93c.25-1.06,1.18-1.77,2.21-1.69,1.02.09,1.84.94,1.93,2.03l.29,3.48,1.34-5.88c.24-1.05,1.14-1.77,2.16-1.71,1.01.06,1.84.88,1.97,1.95.89,7.29,2.1,15.55,2.64,17.2.39.52,1.1,1.6,2.85,4.32,1.4,2.17,3.77,5.85,5.96,9.06,1.44,3.02,2.86,6.02,4.16,9.1-2.17-3.1-4.65-5.91-8.12-7.31-1.47-2.19-3.26-4.91-5.46-8.32-1.16-1.8-2.37-3.67-2.66-4.05-.48-.52-.92-1.13-1.96-7.92l-1.77,7.8c-.24,1.07-1.17,1.79-2.2,1.71-1.03-.08-1.85-.94-1.94-2.03l-.33-3.9-.16.68c-.24,1.01-1.1,1.71-2.09,1.69-.98-.02-1.82-.76-2.01-1.79l-.38-1.97-.59,5.28c-.12,1.06-.93,1.89-1.93,1.97-1,.08-1.92-.6-2.19-1.63-.92-3.51-3.88-15.02-3.95-17.51-.26-1.81-4.37-13.75-7.9-23.65ZM774.96,63.46v.07s0-.07,0-.07Z"/>
            <path class="cls-1" d="M757.63,93.33c7.99-10.57,18.35-24.23,22.81-30.01,1.06,4.52,2.65,13.18,3.94,21.11.18,1.08,1.07,1.87,2.09,1.86,1.03-.01,1.9-.82,2.06-1.9l1.73-12.04,2.08,13.3c.16,1.03.97,1.81,1.95,1.87.98.06,1.87-.61,2.14-1.61l5.85-21.44c3.75-7.78,9.35-19.27,12.16-24.77.43-2.12,1.06-4.18,1.22-6.33-.23-.17-.49-.29-.75-.35-.98.65-1.92,1.34-2.84,2.02-.88,1.61-2.72,5.21-6.88,13.7-3.37,6.93-6.71,13.81-6.74,13.88-.06.13-.11.26-.15.4l-3.33,12.2-2.73-17.44c-.17-1.09-1.05-1.87-2.09-1.87-1.03,0-1.91.82-2.07,1.9l-1.84,12.84c-.63-3.36-1.19-6.09-1.66-8.1-.92-3.93-1.42-5.23-2.75-5.69-.79-.27-1.64-.05-2.23.57-1.07,1.13-20.11,26.3-26,34.09-.38.98-.81,1.93-1.25,2.88,1.74-.4,3.51-.69,5.28-1.07Z"/>
          </g>
          <g>
            <g>
              <path class="cls-1" d="M59.26,140.36c-2.06-.52-4.12-1-6.18-1.39l.96-1.14.09-.04,26.32-10.62c.34-.14.72-.19,1.1-.15l7.11.71-8.96-4.64c-.9-.47-1.37-1.44-1.15-2.37.21-.92,1.08-1.58,2.09-1.59l15.86-.14-9.99-9.09-2.55-.39c-1.07-.17-1.89-1.03-1.94-2.06-.02-.47.12-.92.39-1.28l-1.54-1.4c-.76-.69-.93-1.76-.41-2.62.53-.87,1.6-1.26,2.59-.94l8.4,2.67c3.2-.63,7.1-1.39,11.04-2.12,4.11-.75,7.39-1.31,10.04-1.71,2.63-.43,4.63-.7,6.13-.92,2.99-.45,4.04-.65,4.4-.77.51-.5,1.43-.64,2.35-.31.45.16.83.42,1.11.71-.57.47-1.11.94-1.6,1.52-.49.57-.96,1.17-1.42,1.78-1.11.26-2.58.54-4.54.87-3.42.61-8.14,1.46-14.04,2.62-1.68.33-3.36.67-4.99.99l7.44,2.33c1.11.34,1.79,1.43,1.54,2.5-.25,1.06-1.32,1.76-2.48,1.58l-12.28-1.89,9.31,8.47c.66.6.88,1.51.57,2.3-.31.79-1.1,1.31-2,1.32l-12.78.11,11.19,5.8c.94.49,1.41,1.53,1.12,2.48-.29.96-1.26,1.57-2.32,1.46l-17.46-1.75-22.51,9.09ZM122.73,98.84h0s0,0,0,0Z"/>
              <path class="cls-1" d="M52.88,139.19v.03s.2-.24.2-.24l-.12-.02c-.03.08-.06.16-.08.24Z"/>
              <path class="cls-1" d="M53.08,138.98l.96-1.14c-.52.24-.89.64-1.08,1.12l.12.02Z"/>
            </g>
            <path class="cls-1" d="M108.19,148.12c-.34-1.2-.64-2.41-.87-3.63l-18.92-14.44,14.01.61c1.01.04,1.91-.56,2.19-1.48.27-.92-.15-1.91-1.03-2.42l-14.49-8.4,15.99,1.44c.84.08,1.64-.3,2.07-.98.43-.68.41-1.54-.05-2.22l-7.63-11.35c-2.53-3.78-5.03-7.6-7.36-11.64-2.33-4.04-4.53-8.28-6.35-12.92-.95-2.3-1.72-4.75-2.47-7.26-.66-2.56-1.31-5.18-1.67-7.99-1.75-.98-3.5-1.96-5.28-2.88-.18.55-.26,1.11-.19,1.64.83,5.61,2.2,10.72,4.02,15.35,1.79,4.66,3.88,8.94,6.16,12.96,2.26,4.04,4.68,7.84,7.16,11.57l7.45,11.11-21.01-1.9c-1.03-.09-1.98.5-2.28,1.43-.3.93.12,1.95,1.01,2.47l15.3,8.87-12.16-.53c-.96-.04-1.82.5-2.14,1.35-.32.85-.02,1.81.74,2.39l21.68,16.55c2.02.71,3.99,1.52,5.88,2.5.09-.06.17-.13.25-.2Z"/>
          </g>
          <g>
            <path class="cls-1" d="M55.05,326.55c1.13.04,2.1-.73,2.24-1.79.14-1.06-.59-2.08-1.69-2.36l-9.67-2.47,10.59-.86c.98-.08,1.76-.75,1.94-1.66.18-.91-.3-1.84-1.17-2.29l-10.76-5.58,11.8.95c1.04.08,1.98-.53,2.27-1.47.28-.94-.16-1.96-1.08-2.46l-15-8.14,31.87-7.32c.35-.08.66-.24.91-.45-1.45-1.06-2.91-2.11-4.39-3.13l-34.91,8.02c-.88.2-1.52.89-1.63,1.75-.11.85.35,1.7,1.15,2.13l11.18,6.07-12.29-.99c-1.05-.08-2,.54-2.27,1.49-.28.95.19,1.98,1.13,2.46l13.5,7-15.85,1.28c-1.08.09-1.91.89-1.97,1.91-.07,1.02.65,1.96,1.71,2.23l2.82.72-31.06-1.16c-1.46.69-2.92,1.38-4.38,2.08,2.2.69,4.36,1.45,6.56,2.23l48.49,1.8Z"/>
            <path class="cls-1" d="M59.5,360.14c-4.75-4.71-8.97-10.61-13.1-16.7l-12.41-18.32,24.24-3.6c1-.15,1.74-.92,1.82-1.87.07-.95-.54-1.86-1.5-2.19l-13.42-4.73,13.77-2.25c1-.16,1.73-.95,1.79-1.91.05-.96-.59-1.85-1.56-2.17l-7.7-2.52,8.58.4c1.06.05,1.98-.6,2.22-1.58.24-.97-.28-1.98-1.24-2.42l-28.5-13.18c.19,1.62.33,3.23.44,4.85l16.46,7.61-13.35-.62c-1.11-.05-2.06.68-2.24,1.71-.18,1.03.47,2.05,1.53,2.4l14.21,4.64-13.36,2.18c-.99.16-1.72.93-1.78,1.88-.07.95.55,1.84,1.5,2.18l13.19,4.65-19.2,2.85c-.73.11-1.35.56-1.64,1.2-.29.64-.22,1.39.18,1.99l12.02,17.74c4.01,5.9,8.07,11.72,12.62,16.54,2.32.78,4.61,1.63,6.94,2.43.03-.37-.11-.83-.49-1.2Z"/>
          </g>
          <g>
            <path class="cls-1" d="M948.63,95.05c.41-.26.75-.67.91-1.19l10.91-33.49c.09.51.17,1.03.26,1.55.5,2.92.91,5.26,1.23,6.93.19,1.03.35,1.8.47,2.35.08.34.14.59.2.79.55,1.82,1.99,1.79,2.28,1.77.94-.08,1.96-.88,1.97-2.43,0-1.14.62-6.57,1.33-12.43l4.73,15.76c.3.99,1.2,1.64,2.18,1.55.98-.09,1.77-.88,1.91-1.91l1.44-10.64,2.4,10.89c.23,1.05,1.13,1.78,2.15,1.72,1.01-.05,1.85-.86,1.99-1.93l1.07-8.25,2.64,22.66c.08.68.43,1.24.93,1.59,1.05-1.41,2.04-2.88,2.99-4.36l-4.35-37.42c-.13-1.12-1.02-1.96-2.07-1.96-1.06,0-1.95.82-2.1,1.94l-1.72,13.27-2.36-10.7c-.23-1.05-1.13-1.78-2.14-1.72-1.01.05-1.85.85-1.99,1.92l-1.72,12.74-4.8-16c-.28-.93-1.09-1.55-1.99-1.56-.07,0-.13,0-.2,0-.98.09-1.77.89-1.9,1.93-.11.86-.56,4.51-1.08,8.66-.34-2.07-.68-4.12-.98-5.95-.16-1.01-.94-1.77-1.9-1.85-.96-.08-1.85.53-2.16,1.5l-11.64,35.73c1.05,2.77,1.03,5.69,1.14,8.57Z"/>
            <path class="cls-1" d="M950.02,56.16l9.64,16.09c.5.84,1.46,1.22,2.36.95s1.52-1.15,1.52-2.14l.02-3.69,1.56,7.06c.22.99,1.03,1.69,1.98,1.72.95.03,1.8-.62,2.08-1.59l3.66-12.84,2.92,12.8c.19.84.82,1.49,1.62,1.66.8.18,1.62-.15,2.11-.85l12.4-17.5,3.1-4.38c.93-1.47,2.31-2.89,3.66-4.31,1.37-1.41,2.83-2.73,4.38-4.06,1.55-1.26,3.19-2.56,4.92-3.71.49-1.37,1.01-2.74,1.06-4.12-1.78.18-3.67.41-5.5.65-1.52,1.18-2.97,2.36-4.34,3.61-.69.63-1.35,1.26-2,1.9l-.96.96c-.18.16-.27.32-.39.49l-.35.49-5.55,7.84-11.11,15.67-3.69-16.18c-.22-.98-1.04-1.68-1.99-1.71-.94-.02-1.8.62-2.07,1.59l-3.63,12.74-3.8-17.16c-.24-1.1-1.23-1.84-2.28-1.71-1.06.13-1.86,1.08-1.87,2.21l-.1,14.81-5-8.36c-1.53.03-3.06.27-4.59.51.05.19.13.38.24.56Z"/>
          </g>
          <g>
            <path class="cls-1" d="M561.84,72.99c.13,1.03.91,1.82,1.88,1.93.97.1,1.88-.52,2.2-1.5l2.52-7.78-.39,5.27c-.08,1.1.6,2.1,1.61,2.35,1.01.25,2.04-.31,2.43-1.33l4.34-11.32,1.81,12.53c.15,1.02.94,1.81,1.91,1.89.97.09,1.87-.55,2.17-1.53l5.18-16.74,23.76,28.86c1.78.21,3.58.38,5.4.4-.04-.45-.21-.9-.51-1.26l-27.91-33.9c-.5-.6-1.26-.88-2-.72-.74.16-1.34.73-1.58,1.5l-3.59,11.6-1.63-11.3c-.14-.99-.89-1.77-1.83-1.88-.94-.12-1.84.45-2.19,1.38l-2.1,5.47.63-8.5c.08-1.12-.63-2.14-1.67-2.37-1.04-.23-2.07.4-2.42,1.47l-5.03,15.55-4.67-36.61c-1.45-.38-2.92-.7-4.38-1.05l6.07,47.61Z"/>
            <path class="cls-1" d="M537.8,94.7c.19-.15.48-.38.84-.66.65-.53,1.6-1.31,2.82-2.31,2.04-1.7,4.88-4.06,8.44-7.03,6.05-5.08,12.17-10.22,12.23-10.27.35-.3.61-.71.73-1.17l4.18-16.51,5.04,18.52c.26.94,1.06,1.6,1.98,1.61.92.01,1.75-.6,2.04-1.54l6.16-19.74c.7,2.17,1.52,4.7,2.35,7.25,4.72,14.3,5.61,15.26,6.15,15.84.53.57,1.28.82,2.02.68,1.99-.37,3.36-2.08,16.83-33.11,1.56-3.58,3.16-7.22,4.39-10.03-.62-2.15-1.11-4.33-1.67-6.5-.93,1.8-2.64,5.68-6.54,14.66-2.8,6.45-5.98,13.77-8.73,19.76-2.13,4.64-3.5,7.36-4.37,8.95-1.9-4.85-5.42-15.5-8.44-25.28-.28-.91-1.08-1.53-1.98-1.54h-.01c-.91,0-1.71.62-2,1.54l-6.01,19.27-5.25-19.3c-.26-.95-1.08-1.61-2.01-1.61h-.03c-.94.01-1.77.69-2.01,1.66l-5.96,23.53c-6.93,5.84-16.36,13.74-21,17.56-.53,2.1-1.06,4.22-1.49,6.37.39-.05.83-.23,1.32-.61Z"/>
          </g>
          <g>
            <path class="cls-1" d="M405.39,69.32c.12,1.07.93,1.9,1.94,1.98,1.01.08,1.93-.63,2.18-1.67l1.92-7.81,2.7,8.05c.32.95,1.21,1.56,2.15,1.48.95-.08,1.73-.84,1.9-1.83l1.35-7.89,2.88,6.6c.39.88,1.26,1.4,2.17,1.28.91-.12,1.64-.85,1.81-1.81l.55-3.09c1.64,6.85,3.3,13.95,4.13,17.92,1.43,1.45,2.83,2.94,4.34,4.3.26-.37.42-.83.42-1.32.01-2.18-5.01-22.93-7.17-31.75-.25-1.01-1.12-1.7-2.11-1.67-.98.04-1.81.79-2,1.82l-1.08,6.1-2.91-6.68c-.39-.88-1.27-1.4-2.18-1.28-.91.12-1.64.86-1.8,1.82l-1.13,6.6-2.35-7.01c-.31-.92-1.15-1.53-2.07-1.48-.92.04-1.71.72-1.94,1.67l-.79,3.23-2.27-21.15c-1.5-.58-2.98-1.21-4.44-1.89l3.81,35.46Z"/>
            <path class="cls-1" d="M378.06,87.3c.73-2.44,1.43-4.89,1.92-7.39,6.74-6.24,21.03-19.47,31.32-29,.53-.49,1.25-.67,1.93-.48.68.19,1.22.73,1.45,1.44l3.16,9.78.02-2.89c0-.97.6-1.83,1.47-2.12.87-.29,1.82.04,2.35.84l1.13,1.7c8.82-6.24,21.5-15.27,22.62-16.25.23-.23.5-.39.78-.48-.24,2-.53,4-.83,6-5.02,3.69-15.23,10.93-21.94,15.67-.43.31-.93.42-1.41.36l-.07,10.36c0,1.09-.75,2.02-1.77,2.2-1.01.17-2-.45-2.33-1.48l-6.15-19.06c-3.2,2.97-9.22,8.55-15.24,14.13-5.11,4.73-9.19,8.5-12.11,11.2-1.66,1.52-3.04,2.8-4.01,3.69-.49.45-.88.8-1.14,1.04-.14.13-.25.22-.32.29-.28.25-.56.4-.83.49ZM445.37,42.97l.04-.04-.04.04Z"/>
          </g>
          <g>
            <path class="cls-1" d="M212.92,72.22c.37.92,1.27,1.47,2.21,1.34.94-.13,1.68-.9,1.81-1.9l1.19-8.69,2.09,7.34c.26.93,1.06,1.57,1.96,1.59.91.01,1.73-.58,2.03-1.49l2.32-6.96,2.21,9.7c.23.99,1.06,1.7,2.02,1.71h.01c.95,0,1.79-.67,2.04-1.65l3.46-13.52,28.19,24.52c1.6-.43,3.18-.95,4.73-1.57-.11-.16-.23-.3-.38-.43l-32.38-28.18c-.55-.48-1.29-.63-1.97-.4-.68.23-1.2.81-1.39,1.55l-2.16,8.46-1.95-8.54c-.22-.96-1.01-1.66-1.94-1.71-.93-.05-1.78.56-2.09,1.49l-2.54,7.62-2.97-10.42c-.29-1-1.19-1.66-2.17-1.58-.98.08-1.78.87-1.93,1.91l-1.47,10.71-16.14-40.4c-.82,1.71-1.66,3.42-2.52,5.13l17.73,44.36Z"/>
            <path class="cls-1" d="M196.55,55.7c4.67,3.65,8.48,6.49,11.31,8.43,4.72,3.23,6.94,4.31,8.5,2.67.86-.91,1.71-2.75,2.66-5.29,1.46,6.53,2.82,8.27,3.71,9.01.8.66,1.74.89,2.65.63,1.74-.48,3.33-2.54,5.86-11.29.1-.36.21-.72.31-1.08l2.75,11.36c.22.89.92,1.55,1.78,1.66.86.11,1.69-.35,2.11-1.16l17.31-33.95c-.8-1.61-1.55-3.24-2.31-4.87l-16.15,31.68-3.41-14.09c-.24-.99-1.07-1.67-2.02-1.68h-.04c-.97.01-1.8.72-2.03,1.73,0,.02-.24,1.03-.6,2.57-.37,1.54-.9,3.6-1.5,5.73-1.27,4.49-2.19,6.82-2.77,8.02-.43-1.03-.99-2.76-1.59-5.46-.74-3.33-1.14-6.33-1.15-6.87,0-1.41-.88-2.21-1.76-2.38-1.78-.34-2.45,1.43-2.77,2.29-.23.61-.51,1.43-.84,2.38-.58,1.7-1.8,5.23-2.65,6.97-1.54-.8-5.65-3.37-16.21-11.68-3.52-2.77-6.93-5.52-9.55-7.66-1.96.46-3.95.67-5.94.78,2.65,2.18,8.45,6.94,14.32,11.53Z"/>
          </g>
        </g>
        <g>
          <path class="cls-1" d="M1047.22,89.02c.17.52.36,1.02.49,1.53l-4.21,1.58c-.14-.56-.35-1.11-.54-1.69-2.24-6.51-5.67-11.04-9.15-14.17-3.51-3.14-7.08-5.01-10.66-6.28,1.79,1.88,3.63,3.9,5.6,6.21,1.96,2.31,4.06,4.92,6.27,8.06,2.32,3.28,4.07,6.25,5.6,8.95l-4.23,1.58c-1.41-2.44-3-5.1-5.05-7.99-3.26-4.64-6.25-8.03-8.94-11.07-2.74-2.98-5.24-5.59-8.01-7.94-3.38-.57-6.94-.93-11.02-1.18-2.05-.1-4.23-.2-6.61-.16-.3,0-.6,0-.9,0-.33,0-.67,0-1.01.01-.68,0-1.38,0-2.09,0-1.42-.01-2.91-.05-4.47-.12-7.72-.34-13.62-1.24-18.7-2.22-.33.11-.66.22-.99.34-5.35,1.82-10.39,3.54-20.16,3.34-9.96-.2-15.65-2.19-21.14-4.12l-.12-.04c-4.97,1.15-9.87,2.19-17.51,2.18-7.74,0-11.91-1.1-16.32-2.26-1.02-.27-2.05-.54-3.15-.81-.58.2-1.16.4-1.73.59-5.14,1.77-10.46,3.6-19.82,3.24-7.76-.3-13.02-1.86-17.79-3.57-7.59,1.37-15.65,2.6-26.98,1.55-3.29-.3-6.68-1.5-10.27-2.77-.22-.08-.45-.16-.68-.24-1.64.55-3.26,1.12-4.83,1.67-6.31,2.22-12.27,4.31-16.81,4.15-4.55-.15-7.07-1.78-9.5-3.36-.45-.29-.9-.58-1.37-.87-4.7,1.82-9.11,3.39-12.77,3.37-7.37-.05-12.36-2.48-17.18-4.83l-.41-.2c-4.97,1-10.14,2.01-19.07,1.79-3.75-.09-6.76-.31-9.31-.6-3.62-.41-6.34-.96-8.97-1.5l-.9.4c-5.7,2.54-11.6,5.17-21.73,5.22-6.56.03-11.05-1.03-15-2.48-1.63-.6-3.18-1.26-4.73-1.94-4.4.9-9.33,1.67-16.4,1.77-10.85.15-16.64-1.43-22.35-3.23l-.7-.22-.58-.18c-.86-.27-1.72-.54-2.6-.81-.4.13-.81.26-1.22.39-4.39,1.42-9.18,2.96-15.75,3.9l.03-4.52c3.27-.49,6.08-1.15,8.66-1.87-2.48-.48-5.3-.89-8.63-1.2l.03-4.49c7.48.67,12.59,1.88,16.85,3.13,5.05-1.58,10.22-2.92,17.63-2.86,1.34,0,2.75.07,4.24.17.28.02.57.04.86.07,2.55.21,4.82.53,6.88.92,4.62.88,8.15,2.14,11.23,3.42.77.33,1.52.65,2.26.97.7-.15,1.4-.3,2.11-.46l.43-.09c5.85-1.27,12-2.56,22.68-2.4,4.74.07,8.23.39,11.16.83.16.02.32.05.48.07.64.1,1.25.2,1.84.31.97.17,1.89.36,2.79.54,5.15-2.24,10.84-4.29,19.88-4.27h.19c8.07.05,13.54,2.31,18.25,4.57,5.24-1.04,10.51-1.93,19.98-1.21,4.7.36,7.8,1.43,10.16,2.64,5.73-2.24,11.65-4.55,16.79-4.54h.1c5.76.04,10.82,1.57,15.35,3.14,5.66-1.84,11.58-3.37,17.03-3.27,8.72.16,14.29,2.24,19.68,4.25.51.19,1.02.38,1.54.57l.8-.15c8.4-1.53,17.08-3.11,29.75-1.57,3.33.41,5.97.91,8.26,1.43,4.46-1.44,9.54-2.69,17.58-2.65h.13c9.06.06,14.58,1.76,19.68,3.53,2.91-.68,5.92-1.38,9.66-1.94,12.1-1.81,19.39-.26,27.84,1.53,1.42.3,2.89.6,4.43.92,4.34-1.44,9.53-2.9,17.88-3.52,3.32-.24,6.23-.3,8.96-.2,3.03.11,5.74.63,8.17,1.32,4.86,1.5,8.61,3.8,11.96,6.47.88.18,1.75.36,2.6.53.85.21,1.71.41,2.56.64,4.61,1.31,9.18,3.18,13.73,6.8,2.26,1.81,4.51,4.06,6.59,6.93,2.08,2.86,3.99,6.35,5.42,10.55ZM662.21,59.14c-.95-.3-1.95-.58-3.02-.85-2.58-.64-5.55-1.14-9.12-1.44-.85-.07-1.66-.12-2.45-.16-.79-.04-1.55-.06-2.29-.07-3.7-.03-6.78.31-9.59.86,4.65,1.32,9.72,2.27,18.15,2.15,2.66-.04,4.99-.17,7.1-.37.42-.04.83-.09,1.23-.13ZM704.62,59.75c-.69-.08-1.4-.15-2.17-.22-.56-.04-1.15-.08-1.76-.13-.41-.02-.83-.05-1.26-.07-1.08-.05-2.24-.09-3.5-.11-6.09-.09-10.56.29-14.42.88-1.13.17-2.2.36-3.25.57,3.01.94,6.42,1.57,10.99,1.61.26,0,.53,0,.8,0,6.23-.03,10.65-1.09,14.56-2.54ZM742.41,58.25c-2.87-.9-6.12-1.51-10.1-1.54h-.17c-4.49-.01-8.04.52-11.14,1.35,2.69.34,5.91.61,10.09.71,4.65.11,8.24-.12,11.32-.52ZM774.3,60.63c-1.16-.26-2.49-.45-4.03-.57-5.2-.39-9.06-.28-12.37.09,2.85,1.08,5.94,1.84,9.78,1.87,1.85.01,4.12-.55,6.62-1.38ZM805.78,59.3c-2.59-.65-5.33-1.1-8.2-1.12h-.08c-3.48-.01-7.7,1.35-11.97,2.97,1.62.96,3.27,1.65,5.9,1.74,3.58.12,8.78-1.63,14.36-3.58ZM841.94,59.86c-3.39-1-7.15-1.72-12.03-1.81-2.99-.06-6.23.46-9.53,1.27,1.35.37,2.64.65,3.86.76,6.92.64,12.59.39,17.7-.23ZM880.68,61.06c-7.79-.9-13.88-.57-19.54.2,2.27.42,4.79.72,7.66.83,4.99.19,8.68-.28,11.88-1.04ZM917.73,60.87c-2.81-.55-6.03-.91-10.02-.93h-.13c-3.09-.02-5.72.18-8.03.5,2.71.53,5.8.89,10.14.89,3.1,0,5.7-.17,8.04-.46ZM960.52,62.23c-6.86-1.38-13.13-2.2-22.86-.74-.55.09-1.09.17-1.61.26,3.38.85,7.28,1.46,12.49,1.56,5.14.1,8.82-.35,11.99-1.08ZM1005.41,62.24c-2.32-.95-4.96-1.6-7.97-1.87-1.54-.14-3.04-.15-4.69-.14-1.64.02-3.38.09-5.24.23-2.61.19-4.89.47-6.91.8,2.41.26,5.02.47,7.88.59,1.69.07,3.3.11,4.84.12,1.54,0,2.99-.01,4.39-.02,2.79.02,5.34.09,7.7.29Z"/>
          <path class="cls-1" d="M609.44,51.78c.47.04.92.08,1.38.11l-.03,4.49c-.54-.05-1.09-.09-1.65-.14-12.8-.99-20.36.54-27.62,2.44,5,1.08,10.81,1.83,18.63,1.64,4.09-.1,7.56-.42,10.62-.88l-.03,4.52c-3.07.44-6.52.74-10.5.84-12.75.3-20.35-1.74-27.56-3.79-6.88,1.66-14.9,2.94-27.35,2.39-7.72-.34-13.62-1.24-18.7-2.22-.33.11-.66.22-.99.34-5.35,1.82-10.39,3.54-20.16,3.34-9.96-.2-15.65-2.19-21.14-4.12l-.12-.04c-4.97,1.15-9.87,2.19-17.51,2.18-7.74,0-11.91-1.1-16.32-2.26-1.02-.27-2.05-.54-3.15-.81-.58.2-1.16.4-1.73.59-5.14,1.77-10.46,3.6-19.82,3.24-7.76-.3-13.02-1.86-17.79-3.57-7.59,1.37-15.65,2.6-26.98,1.55-3.29-.3-6.68-1.5-10.27-2.77-.22-.08-.45-.16-.68-.24-1.64.55-3.26,1.12-4.83,1.67-6.31,2.22-12.27,4.31-16.81,4.15-4.55-.15-7.07-1.78-9.5-3.36-.45-.29-.9-.58-1.37-.87-4.7,1.82-9.11,3.39-12.77,3.37-7.37-.05-12.36-2.48-17.18-4.83l-.41-.2c-4.97,1-10.14,2.01-19.07,1.79-3.75-.09-6.76-.31-9.31-.6-3.62-.41-6.34-.96-8.97-1.5l-.91.4c-5.7,2.54-11.6,5.17-21.73,5.22-6.56.03-11.05-1.03-15-2.48-1.63-.6-3.18-1.26-4.73-1.94-4.4.9-9.33,1.67-16.4,1.77-10.84.15-16.64-1.43-22.35-3.23l-.7-.22-.58-.18c-.86-.27-1.72-.54-2.6-.81-.4.13-.81.26-1.22.39-4.39,1.42-9.18,2.96-15.75,3.9l.03-4.52c3.27-.49,6.08-1.15,8.66-1.87-2.48-.48-5.3-.89-8.64-1.2l.03-4.49c7.48.67,12.59,1.88,16.85,3.13,5.05-1.58,10.22-2.92,17.63-2.86,1.34,0,2.75.07,4.24.17.28.02.57.04.86.07,2.55.21,4.82.53,6.88.92,4.62.88,8.15,2.14,11.23,3.42.77.33,1.52.65,2.26.97.7-.15,1.4-.3,2.11-.46l.43-.09c5.85-1.27,12-2.56,22.68-2.4,4.74.07,8.23.39,11.16.83.16.02.32.05.48.07.64.1,1.25.2,1.84.31.97.17,1.89.36,2.79.54,5.15-2.24,10.84-4.29,19.88-4.27h.19c8.07.05,13.54,2.31,18.25,4.57,5.24-1.04,10.51-1.93,19.98-1.21,4.7.36,7.8,1.43,10.16,2.64,5.73-2.24,11.65-4.55,16.79-4.53h.1c5.76.04,10.82,1.57,15.35,3.14,5.66-1.84,11.58-3.37,17.03-3.27,8.72.16,14.29,2.24,19.68,4.25.51.19,1.02.38,1.54.57l.8-.15c8.4-1.53,17.08-3.11,29.75-1.57,3.33.41,5.97.91,8.26,1.43,4.46-1.44,9.54-2.69,17.58-2.65h.13c9.06.06,14.58,1.76,19.68,3.53,2.91-.68,5.92-1.38,9.66-1.94,12.1-1.81,19.39-.26,27.84,1.53,1.42.3,2.89.6,4.43.92,4.34-1.44,9.53-2.9,17.88-3.52,13.22-.98,20.69,1.1,28.5,3.33,1.64-.41,3.22-.84,4.79-1.26,8.59-2.33,16.7-4.53,31.9-3.36ZM219.24,56.23c-.95-.3-1.95-.58-3.02-.85-2.58-.64-5.55-1.14-9.12-1.44-.85-.07-1.66-.12-2.45-.16-.79-.04-1.55-.06-2.29-.07-3.7-.03-6.78.31-9.59.86,4.65,1.32,9.72,2.27,18.15,2.15,2.66-.04,4.99-.17,7.1-.37.42-.04.83-.09,1.23-.13ZM261.65,56.84c-.69-.08-1.4-.15-2.17-.22-.56-.04-1.15-.08-1.76-.13-.41-.02-.83-.05-1.26-.07-1.08-.05-2.24-.09-3.5-.11-6.09-.09-10.56.29-14.42.88-1.13.17-2.2.36-3.25.57,3.01.94,6.42,1.57,10.99,1.61.26,0,.53,0,.8,0,6.23-.03,10.65-1.1,14.56-2.54ZM299.44,55.34c-2.87-.9-6.12-1.51-10.1-1.54h-.17c-4.49-.01-8.04.52-11.14,1.35,2.69.34,5.91.61,10.09.71,4.65.11,8.24-.12,11.32-.52ZM331.33,57.72c-1.16-.26-2.49-.46-4.03-.57-5.2-.39-9.06-.28-12.37.09,2.85,1.08,5.94,1.84,9.78,1.87,1.85.01,4.12-.55,6.62-1.38ZM362.81,56.38c-2.59-.65-5.33-1.1-8.2-1.12h-.08c-3.48-.01-7.7,1.35-11.97,2.96,1.62.96,3.27,1.65,5.9,1.74,3.58.12,8.78-1.63,14.36-3.58ZM398.97,56.94c-3.39-1-7.15-1.72-12.03-1.81-2.99-.06-6.23.46-9.53,1.27,1.35.37,2.64.65,3.86.76,6.92.64,12.59.39,17.7-.23ZM437.7,58.14c-7.79-.9-13.88-.57-19.54.2,2.27.42,4.79.72,7.66.83,4.99.19,8.68-.28,11.88-1.04ZM474.75,57.95c-2.81-.55-6.03-.91-10.02-.93h-.13c-3.09-.02-5.72.18-8.03.5,2.71.53,5.8.89,10.14.89,3.1,0,5.7-.17,8.04-.46ZM517.55,59.32c-6.86-1.38-13.13-2.2-22.86-.74-.55.09-1.09.17-1.61.26,3.38.85,7.28,1.46,12.49,1.56,5.14.1,8.82-.35,11.99-1.08ZM562.34,58.39c-4.83-.92-10.36-1.4-17.8-.85-2.61.19-4.89.47-6.91.8,2.41.26,5.02.47,7.88.59,6.78.3,12.19.03,16.83-.55Z"/>
          <path class="cls-1" d="M166.47,48.86c.47.04.92.08,1.38.11l-.03,4.49c-.54-.05-1.09-.09-1.65-.14-3.2-.25-6.07-.34-8.7-.3-2.63.03-5.04.22-7.27.52-4.46.62-8.22,1.75-11.72,3.19,5.15.35,10.89.87,18.7.68,4.09-.1,7.56-.42,10.62-.88l-.03,4.52c-3.06.44-6.52.74-10.5.84-6.32.15-11.17-.14-15.4-.42-4.21-.29-7.85-.66-11.44-.67-2.91,1.74-5.81,3.73-8.9,6.32-.8.61-1.52,1.37-2.33,2.08-.42.34-.78.76-1.17,1.16-.39.4-.81.79-1.21,1.22-1.57,1.72-3.2,3.65-4.85,5.88-2.03,2.81-3.73,5.59-5.25,8.11-1.53,2.53-2.85,4.9-4.11,7.11,0,.35.02.69.03,1.03.13,5.57.63,10.63-1.92,20.12-2.6,9.62-5.9,14.66-9.09,19.53l-.07.1c-.08,5.11-.26,10.11-2.11,17.52-1.87,7.51-3.94,11.29-6.13,15.3-.51.93-1.02,1.86-1.54,2.86.05.61.1,1.22.16,1.82.48,5.42.97,11.02-1.63,20.02-2.16,7.46-4.94,12.19-7.75,16.4-.51,7.7-1.25,15.81-5,26.56-1.09,3.12-3.07,6.12-5.17,9.3-.13.2-.26.4-.4.6.14,1.72.3,3.43.45,5.09.63,6.66,1.22,12.95-.02,17.31-1.25,4.38-3.44,6.43-5.55,8.41-.39.37-.78.73-1.18,1.12.64,5,1.1,9.66.19,13.2-1.82,7.14-5.39,11.4-8.83,15.51l-.29.35c-.23,5.06-.49,10.33-2.86,18.94-1,3.62-1.93,6.49-2.83,8.89-1.27,3.42-2.46,5.92-3.62,8.34l.17.98c.55,3.07,1.11,6.18,1.36,9.67.26,3.49.17,7.34-.24,11.91-.49,5.91-1.18,9.72-1.95,13.5-.29,1.55-.59,3.08-.78,4.68,1.07,1.83,2.24,3.68,3.69,5.67,1.43,1.99,3.08,4.14,5.19,6.54,1.62,1.85,3.14,3.43,4.55,4.85,1.42,1.45,2.68,2.74,3.85,3.93,2.36,2.42,4.33,4.57,6.37,6.7l.51.53.42.43c.63.62,1.27,1.26,1.95,1.89.42.06.84.11,1.27.17,4.56.59,9.46.92,15.81,2.05l-1.44,4.28c-3.26-.57-6.14-.91-8.84-1.21,2.16,1.38,4.72,2.76,7.86,4.12l-1.44,4.26c-7.23-3.1-11.77-6.39-15.23-9.45-2.72-.46-5.48-1.09-8.41-2.24-2.92-1.17-6.03-2.86-9.25-5.56-1.15-1-2.33-2.09-3.47-3.37-.22-.24-.44-.48-.66-.73-1.9-2.24-3.35-4.48-4.44-6.62-2.42-4.85-3-9.09-2.97-12.64,0-.45.02-.88.02-1.32.04-.43.07-.86.11-1.28-.35-.67-.74-1.33-1.05-2.03l-.2-.42c-1.36-2.89-2.47-6.07-3.04-9.98-.56-3.9-.58-8.54.41-14.08.87-4.92,2.04-8.33,3.13-11.13.06-.15.12-.31.19-.46.25-.6.49-1.18.74-1.74.4-.9.8-1.76,1.2-2.59-.93-5.54-1.55-11.56.65-20.33l.05-.18c2-7.82,5.51-12.58,8.83-16.61.25-5.34.67-10.67,3.65-19.68,1.48-4.48,3.27-7.22,5.01-9.22-.8-6.1-1.61-12.4-.35-17.39l.02-.09c1.43-5.58,4.13-10.12,6.74-14.14-.42-5.94-.48-12.05.94-17.31,2.26-8.42,5.62-13.33,8.87-18.08.31-.45.61-.9.93-1.36l.05-.81c.54-8.52,1.1-17.33,5.65-29.25,1.2-3.13,2.32-5.58,3.38-7.67-.33-4.67-.31-9.91,1.66-17.7l.03-.13c2.24-8.78,5.22-13.72,8.17-18.25.04-2.99.09-6.08.45-9.84.58-6.09,1.68-10.81,3.12-14.98,1.43-4.16,3.21-7.87,5.28-11.75.69-1.31,1.43-2.65,2.2-4.05-.01-1.17.05-2.38.14-3.7.12-1.31.28-2.72.57-4.25.58-3.05,1.63-6.6,3.84-10.76.43-.85.92-1.64,1.41-2.4.5-.76.96-1.52,1.5-2.18.53-.68,1.05-1.33,1.57-1.96.55-.6,1.11-1.17,1.66-1.72.28-.27.55-.54.82-.81.29-.24.58-.48.86-.72.57-.47,1.14-.91,1.7-1.34,1.18-.78,2.31-1.51,3.46-2.1,4.65-2.32,9.12-3.03,13.45-3.18.79-.43,1.58-.86,2.35-1.29.78-.39,1.56-.78,2.33-1.17,4.28-2.04,8.69-3.61,13.92-4.53,2.62-.46,5.43-.73,8.51-.82,3.08-.08,6.4,0,10.22.29ZM36.26,390.32c.25.97.49,2.03.91,3.08.94,2.58,2.49,5.41,4.97,8.3.6.67,1.18,1.31,1.77,1.9.6.58,1.19,1.13,1.78,1.64,2.99,2.51,5.88,4.05,8.64,5.08-1.7-1.82-3.44-3.67-5.52-5.76-2.07-2.11-4.49-4.48-7.3-7.66-1.77-2.01-3.23-3.85-4.5-5.58-.26-.34-.51-.68-.75-1.01ZM34.18,348.55c-.23.65-.45,1.34-.68,2.07-.17.54-.33,1.11-.49,1.71-.1.4-.21.81-.32,1.23-.24,1.06-.51,2.2-.72,3.45-.54,3.03-.77,5.7-.73,8.09-.02,1.19.1,2.32.18,3.38.14,1.06.27,2.07.48,3.02.24,1.11.5,2.16.85,3.16.58-3.06,1.08-6.31,1.45-10.71.02-.25.05-.51.07-.78.26-3.01.4-5.62.38-8.01-.03-2.39-.19-4.55-.47-6.62ZM41.79,311.49c-1.57,2.57-2.95,5.58-3.93,9.43l-.04.16c-1.09,4.35-1.43,7.93-1.38,11.14.98-2.53,2.01-5.59,3.12-9.62,1.23-4.49,1.87-8.03,2.22-11.11ZM51.79,281.11c-.53,1.07-1.04,2.31-1.53,3.78-1.63,4.95-2.45,8.73-2.9,12.02,1.74-2.5,3.22-5.32,4.17-9.04.46-1.79.46-4.13.25-6.76ZM58.08,250.24c-1.26,2.36-2.35,4.9-3.07,7.69l-.02.08c-.85,3.37-.54,7.79,0,12.34,1.33-1.34,2.39-2.78,3.11-5.31.98-3.44.54-8.92-.01-14.8ZM67.34,215.28c-1.78,3.05-3.4,6.53-4.66,11.24-.78,2.89-1.05,6.16-1.06,9.55.69-1.22,1.27-2.4,1.67-3.56,2.29-6.56,3.41-12.12,4.05-17.23ZM77.85,177.98c-2.75,7.34-3.9,13.34-4.51,19.01.96-2.1,1.86-4.47,2.66-7.24,1.39-4.8,1.82-8.49,1.86-11.77ZM86.59,141.98c-1.21,2.59-2.33,5.63-3.32,9.5l-.03.12c-.76,3-1.21,5.59-1.45,7.92,1.17-2.5,2.26-5.41,3.31-9.62.75-3.01,1.21-5.57,1.49-7.91ZM98.27,100.78c-3.07,6.29-5.33,12.2-6.27,21.99-.05.56-.09,1.1-.14,1.63,1.64-3.07,3.17-6.71,4.53-11.74,1.34-4.97,1.78-8.63,1.88-11.88ZM119.99,62.54c-.58.24-1.17.49-1.76.76-.61.26-1.16.63-1.76.97-1.21.66-2.33,1.56-3.51,2.53-2.27,2.02-4.48,4.68-6.32,8.1-.3.6-.6,1.19-.89,1.75-.28.56-.49,1.14-.72,1.68-.22.55-.43,1.08-.61,1.6-.16.53-.32,1.04-.47,1.54,1.25-2.1,2.73-4.29,4.38-6.65,1.99-2.77,4.01-5.06,5.94-7.09.49-.5.98-.98,1.45-1.46.47-.48.98-.88,1.45-1.32.93-.9,1.9-1.64,2.82-2.41Z"/>
        </g>
      </g>
      <g>
        <g>
          <g>
            <path class="cls-1" d="M351.63,507.88c-.44,2.3-.79,4.67-1.18,6.95-.06.01-.12.03-.18.04h-.14c-.49-2.35-1.66-4.39-2.72-6.47-.28-2.65-.65-6.15-1.02-9.68-1.5-14.9-1.24-15.96-1.08-16.59.12-.55.18-2.48.21-5.1l-2.5,6.97c-.37,1.03-1.39,1.65-2.4,1.46-1.02-.2-1.73-1.14-1.68-2.24l.27-6.1-1.82,3.6c-.49.97-1.56,1.45-2.54,1.13-.98-.32-1.57-1.34-1.41-2.42l.52-3.45-2.67,5.41c-.48.97-1.52,1.46-2.5,1.16-.97-.29-1.59-1.28-1.47-2.35.83-7.3,1.57-15.61,1.42-17.34-.26-.59-.69-1.81-1.77-4.86-.86-2.44-2.31-6.56-3.69-10.19-.7-3.27-1.38-6.52-1.93-9.82,1.39,3.52,3.16,6.83,6.2,9,.93,2.47,2.03,5.54,3.38,9.36.71,2.02,1.45,4.12,1.65,4.56.35.62.63,1.32.07,8.15l3.54-7.18c.48-.98,1.55-1.47,2.54-1.15.98.32,1.58,1.34,1.42,2.43l-.58,3.87.32-.62c.47-.93,1.46-1.41,2.42-1.16.95.25,1.59,1.17,1.54,2.21l-.09,2.01,1.8-5c.36-1.01,1.34-1.62,2.33-1.47,1,.15,1.73,1.03,1.75,2.09.08,3.63.29,15.51-.22,17.95-.17,1.82,1.06,14.39,2.2,24.84ZM349.4,483.14v-.06s0,.06,0,.06Z"/>
            <path class="cls-1" d="M373.19,458.11c-10.22,8.43-23.47,19.31-29.15,23.9.02-4.64.48-13.44,1.06-21.45.08-1.09-.6-2.07-1.61-2.29-1.01-.23-2.04.35-2.44,1.37l-4.47,11.31,1.06-13.43c.08-1.04-.53-1.98-1.47-2.27-.94-.29-1.96.16-2.46,1.07l-10.66,19.5c-5.46,6.7-13.57,16.57-17.57,21.28-.91,1.96-2,3.82-2.65,5.87.19.22.41.39.65.51,1.1-.41,2.18-.86,3.23-1.31,1.23-1.36,3.86-4.44,9.87-11.73,4.88-5.96,9.73-11.88,9.78-11.93.09-.11.17-.23.24-.35l6.07-11.09-1.39,17.59c-.09,1.1.59,2.06,1.6,2.3,1.01.23,2.05-.35,2.45-1.37l4.77-12.06c-.17,3.42-.25,6.2-.27,8.26-.02,4.04.16,5.42,1.36,6.17.7.44,1.58.43,2.3-.04,1.31-.85,25.67-20.91,33.2-27.12.6-.86,1.24-1.69,1.88-2.51-1.78-.02-3.58-.14-5.38-.19Z"/>
          </g>
          <g>
            <g>
              <path class="cls-1" d="M1065.13,375.16c2.06.53,4.11,1.02,6.19,1.38l-1.05,1.45-.09.06c-9.21,4.8-18.8,9.09-28.48,11.56-.38.1-.77.09-1.13-.02-2.29-.68-4.57-1.39-6.83-2.13,1.28,1.1,2.55,2.22,3.81,3.37,1.24,1.14,2.46,2.31,3.67,3.5.73.71.85,1.94.28,2.96-.6,1.01-1.74,1.53-2.73,1.26-1.29-.35-2.57-.72-3.84-1.11-1.28-.4-2.56-.81-3.82-1.25-2.52-.87-4.99-1.82-7.39-2.84.97,1.98,1.87,4.06,2.67,6.19.78,2.11,1.52,4.34,2.12,6.56l2.07,1.55c.88.65,1.08,1.89.46,2.96-.28.5-.71.87-1.19,1.09l.42,2.15c.2,1.08-.43,2.24-1.48,2.78-1.05.56-2.24.31-2.86-.53-1.76-2.35-3.53-4.69-5.32-7.02-1.53-.64-3.2-1.37-4.92-2.17-1.72-.8-3.52-1.7-5.28-2.61-3.68-1.92-6.53-3.58-8.83-4.92-2.28-1.34-4.01-2.35-5.32-3.12-2.61-1.52-3.64-1.97-4-2.09-.74.11-1.62-.32-2.13-1.15-.25-.41-.38-.85-.4-1.26.8-.05,1.57-.16,2.35-.3.77-.15,1.49-.33,2.23-.51,1.02.51,2.28,1.24,3.99,2.21,1.5.86,3.22,1.87,5.28,3.02,2.02,1.13,4.39,2.42,7.02,3.73,1.5.74,3.05,1.49,4.55,2.15l-4.86-6.1c-.73-.91-.78-2.08-.15-2.71.61-.62,1.77-.52,2.66.23,3.15,2.69,6.33,5.32,9.58,7.89-.32-1.01-.65-2-1-2.97-.36-.98-.74-1.96-1.14-2.91-.4-.95-.8-1.88-1.24-2.81-.45-.93-.91-1.84-1.38-2.73-.4-.75-.34-1.53.12-2.02.48-.48,1.33-.57,2.16-.24,3.91,1.57,7.91,2.92,12.05,4.09-3-2.97-6.12-5.79-9.32-8.45-.79-.66-1.09-1.67-.68-2.39.42-.72,1.44-1.01,2.44-.7,5.55,1.75,11.19,3.31,16.91,4.68,8.07-2.33,16.07-5.84,23.83-9.76ZM992.82,393.95h0s0,0,0,0Z"/>
              <path class="cls-1" d="M1071.53,376.27v-.04s-.21.31-.21.31l.12.02c.04-.1.07-.19.1-.3Z"/>
              <path class="cls-1" d="M1071.32,376.54l-1.05,1.45c.54-.31.95-.83,1.17-1.43l-.12-.02Z"/>
            </g>
            <path class="cls-1" d="M1016.41,366.28c.35,1,.64,2.01.86,3.05,6.11,4.65,11.95,9.87,17.21,15.86-4.56-1.06-9.08-2.3-13.48-3.71-.95-.29-1.9-.07-2.3.55-.4.63-.16,1.56.55,2.24,1.97,1.9,3.88,3.9,5.74,5.98,1.87,2.09,3.61,4.21,5.32,6.46-2.41-1.17-4.78-2.4-7.12-3.67-2.35-1.28-4.67-2.62-6.95-4-.72-.43-1.53-.52-2.07-.23-.58.28-.82.9-.64,1.64,1.86,8.11,1.5,17.43.03,26.67-1.45,9.29-3.91,18.62-6,27.63.98,1.75,1.97,3.49,2.99,5.22.27-.27.48-.63.57-1.03,2.14-8.89,4.66-18.08,6.3-27.36.81-4.63,1.41-9.25,1.6-13.8.2-4.55,0-9-.71-13.19,5.83,3.89,11.91,7.49,18.21,10.71.91.47,2.21.17,2.98-.83.79-.98.92-2.3.3-3.15-1.76-2.43-3.66-4.78-5.58-7.03-.97-1.13-1.94-2.22-2.95-3.3-1.02-1.09-2.04-2.15-3.09-3.19,3.83,1.27,7.79,2.42,11.72,3.4.93.24,1.95-.21,2.51-1.11.58-.89.46-2.03-.15-2.77-5.98-7.12-12.71-13.15-19.8-18.55-1.99-.79-3.93-1.64-5.81-2.61-.08.04-.17.09-.24.14Z"/>
          </g>
          <g>
            <path class="cls-1" d="M1028.55,208.47c-.5,1.02-.25,2.16.59,2.68.84.51,1.99.23,2.72-.65l6.36-7.7c-1.26,3.29-2.61,6.55-4.04,9.73-.4.88-.26,1.8.36,2.28.59.48,1.53.41,2.33-.15,3.26-2.33,6.59-4.56,10.04-6.69-2.33,3.19-4.75,6.3-7.24,9.32-.66.8-.83,1.77-.38,2.33.43.56,1.33.61,2.25.12,4.91-2.66,10.11-4.95,15.58-6.65-2.62,4.84-5.95,9.05-9.8,12.48-3.87,3.45-8.24,6.1-12.83,7.87-.31.12-.55.24-.73.36,1.68-.08,3.4-.08,5.09-.02,5.11-1.89,9.99-4.87,14.28-8.81,4.31-3.94,7.94-8.81,10.71-14.44.44-.86.22-1.98-.47-2.83-.69-.85-1.78-1.17-2.64-.87-4.06,1.39-7.97,3.15-11.73,5.03,2.66-3.11,5.22-6.33,7.68-9.66.64-.86.53-2.08-.25-2.94-.78-.87-2-1.04-2.9-.5-4.36,2.63-8.58,5.47-12.68,8.41,2.14-4.81,4.05-9.79,5.82-14.81.36-1.02-.07-2.17-1.02-2.68-.95-.52-2.12-.26-2.79.6l-1.8,2.28,13.39-28.08c-.05-1.62-.11-3.23-.16-4.85-1.51,1.74-3.06,3.43-4.66,5.13l-10.48,21.88c-3.49,7.29-6.96,14.61-10.6,21.81Z"/>
            <path class="cls-1" d="M994.87,197.97l43.5-8.18c-2.1,7.9-4.22,15.82-6.96,23.37-.35.93-.06,1.85.63,2.25.69.39,1.69.18,2.43-.52,3.43-3.26,6.91-6.48,10.44-9.65-1.56,4.36-3.4,8.59-5.56,12.52-.48.86-.41,1.72.18,2.11.55.4,1.53.26,2.36-.33,2.19-1.57,4.42-3.12,6.64-4.64-1.92,2.12-3.92,4.14-5.98,6.06-.75.71-1.07,1.57-.72,2.07.35.49,1.24.59,2.23.19,4.84-1.99,9.76-3.6,14.89-4.91,5.06-1.28,10.3-2.23,15.58-2.8-1.32-1.82-2.72-3.56-4.18-5.21-2.97.69-5.96,1.53-8.85,2.46-2.9.93-5.73,1.97-8.55,3.14,3.22-3.05,6.27-6.34,9.09-9.83.71-.87.56-2.34-.32-3.28-.88-.98-2.22-1.14-3.11-.47-4,2.98-7.95,6.03-11.84,9.14.98-2.01,1.85-4.07,2.69-6.19.81-2.09,1.58-4.27,2.28-6.44.31-.96-.09-2.06-.97-2.61-.88-.55-2-.45-2.73.25-3.38,3.21-6.72,6.47-10.03,9.75,2.07-6.08,3.77-12.37,5.41-18.65.19-.72,0-1.48-.47-2.01-.48-.53-1.21-.78-1.92-.64l-42.12,7.92c-1.82,1.66-3.69,3.26-5.62,4.83.43.31.99.44,1.57.33Z"/>
          </g>
          <g>
            <path class="cls-1" d="M187.81,412.11c-.46.16-.88.48-1.17.95l-18.38,30.04c.03-.52.07-1.04.1-1.56.19-2.96.33-5.32.41-7.03.05-1.04.08-1.83.08-2.39,0-.35,0-.61-.01-.82-.11-1.9-1.52-2.21-1.8-2.25-.93-.14-2.11.4-2.48,1.9-.27,1.1-2.13,6.25-4.18,11.78l-.94-16.43c-.06-1.04-.79-1.87-1.76-2.01-.97-.14-1.92.45-2.3,1.42l-3.87,10.02.19-11.15c.02-1.08-.69-1.99-1.69-2.17-1-.19-2,.41-2.38,1.42l-2.96,7.78,2.69-22.65c.08-.67-.13-1.31-.53-1.76-1.35,1.13-2.66,2.32-3.92,3.55l-4.45,37.41c-.13,1.12.54,2.14,1.56,2.39,1.03.25,2.09-.35,2.49-1.4l4.75-12.51-.19,10.96c-.02,1.07.69,1.99,1.68,2.17.99.19,1.99-.4,2.38-1.41l4.63-11.99.96,16.68c.06.97.7,1.76,1.57,1.98.06.02.13.03.19.04.97.14,1.93-.46,2.3-1.44.3-.81,1.59-4.25,3.07-8.17-.15,2.09-.3,4.17-.43,6.02-.08,1.02.51,1.94,1.42,2.24.91.3,1.92-.09,2.45-.96l19.61-32.05c-.38-2.94.32-5.78.88-8.6Z"/>
            <path class="cls-1" d="M177.43,449.61l-5.64-17.89c-.29-.93-1.14-1.53-2.07-1.47-.94.06-1.74.76-1.98,1.73l-.88,3.59.12-7.23c.02-1.01-.61-1.89-1.53-2.14-.92-.25-1.9.19-2.39,1.06l-6.54,11.64.13-13.12c0-.86-.45-1.64-1.19-1.99-.73-.36-1.61-.22-2.25.33l-32.25,28.29c-.5,1.35-1.01,2.71-1.21,4.07,1.21-.26,2.48-.4,3.75-.57l28.88-25.33-.17,16.6c-.01,1.01.62,1.88,1.53,2.12.91.24,1.89-.19,2.39-1.07l6.48-11.55-.29,17.57c-.02,1.13.77,2.07,1.82,2.19,1.06.12,2.06-.62,2.33-1.72l3.53-14.38,2.93,9.29c1.5.33,3.04.45,4.59.57,0-.2-.04-.4-.1-.6Z"/>
          </g>
          <g>
            <path class="cls-1" d="M558.53,520.17c.03-1.04-.59-1.94-1.52-2.19-.92-.25-1.9.22-2.37,1.14l-3.72,7.29,1.25-5.14c.26-1.07-.24-2.17-1.18-2.57-.93-.4-2.03-.01-2.58.92l-6.18,10.39.43-12.66c.04-1.03-.59-1.94-1.51-2.19-.92-.25-1.9.22-2.38,1.13-2.68,5.18-5.4,10.39-8.14,15.53-3-5.49-5.95-10.97-8.84-16.43-2.89-5.48-5.73-11.02-8.53-16.51-1.66-.57-3.35-1.08-5.09-1.48-.06.45,0,.92.22,1.34,3.27,6.46,6.6,12.93,10,19.41,3.39,6.45,6.87,12.87,10.42,19.32.38.69,1.09,1.11,1.85,1.09.77-.02,1.47-.48,1.84-1.19l5.64-10.77-.4,11.41c-.03,1,.58,1.9,1.49,2.18.91.28,1.91-.11,2.42-.97l3.01-5.02-2.08,8.26c-.28,1.09.26,2.22,1.26,2.63,1,.42,2.15-.04,2.67-1.04,2.54-4.84,5.05-9.69,7.53-14.54-.42,12.29-.76,24.6-1.03,36.92,1.44.6,2.89,1.19,4.37,1.75.24-16,.63-32.04,1.14-48.02Z"/>
            <path class="cls-1" d="M584.46,501.9c-.2.13-.49.32-.86.57-.67.46-1.66,1.12-2.93,1.98-2.16,1.41-5.16,3.39-8.93,5.86-3.24,2.1-6.53,4.26-9.03,5.78-2.51,1.55-4.2,2.59-4.24,2.62-.39.24-.7.61-.89,1.05-2.22,5.22-4.46,10.43-6.74,15.64-.66-6.37-1.28-12.69-1.86-19.08-.09-.97-.75-1.76-1.64-1.93-.89-.17-1.79.29-2.23,1.16-3.13,6.12-6.3,12.24-9.51,18.35-.3-2.26-.64-4.89-.99-7.54-1.97-14.91-2.6-16.05-3.02-16.71-.4-.66-1.08-1.05-1.82-1.05-.99,0-1.89.35-4.94,4.19-1.53,1.92-3.59,4.71-6.5,8.75-2.89,4.04-6.66,9.31-11.58,16.18-2.27,3.18-4.6,6.42-6.44,8.9.18,2.23.21,4.47.31,6.71,1.3-1.57,3.84-5,9.52-12.98,4.08-5.74,8.7-12.24,12.53-17.62,2.99-4.14,4.83-6.55,5.98-7.95.91,5.11,2.32,16.28,3.55,26.43.11.95.8,1.7,1.7,1.87h.01c.91.17,1.82-.3,2.27-1.15,3.14-5.96,6.24-11.93,9.3-17.91.6,6.65,1.24,13.3,1.94,19.91.1.98.82,1.76,1.75,1.92h.03c.95.15,1.88-.39,2.29-1.31,3.24-7.42,6.43-14.85,9.55-22.3.95-.59,1.94-1.2,2.96-1.83,1.02-.65,2.06-1.31,3.11-1.99,2.09-1.35,4.22-2.72,6.27-4.04,2.03-1.32,3.98-2.6,5.73-3.74,1.74-1.13,3.27-2.21,4.48-3.02.76-2.03,1.51-4.08,2.16-6.16-.37.01-.8.14-1.31.46Z"/>
          </g>
          <g>
            <path class="cls-1" d="M711.06,525.66c-.22-1.05-1.11-1.8-2.12-1.77-1.01.02-1.85.81-2,1.88l-1.13,7.96-3.48-7.75c-.41-.92-1.35-1.44-2.28-1.26-.93.18-1.64,1-1.71,2.01l-.56,7.98-3.52-6.29c-.47-.84-1.4-1.27-2.29-1.06-.89.21-1.55,1.01-1.62,1.98l-.24,3.12c-2.32-6.65-4.7-13.55-5.94-17.41-1.58-1.3-3.15-2.63-4.82-3.83-.22.4-.34.87-.29,1.36.23,2.17,7.41,22.28,10.42,30.84.35.98,1.29,1.58,2.26,1.45.97-.13,1.72-.97,1.8-2.01l.47-6.17,3.56,6.36c.47.84,1.4,1.27,2.29,1.06.89-.21,1.55-1.02,1.61-1.99l.47-6.68,3.03,6.74c.4.89,1.3,1.41,2.21,1.27.92-.14,1.63-.89,1.77-1.86l.47-3.29,4.4,20.81c1.57.43,3.12.9,4.66,1.42l-7.43-34.88Z"/>
            <path class="cls-1" d="M735.67,504.8c-.39,2.51-.75,5.03-.92,7.57-2.86,3.49-7.4,8.94-12.46,14.8-5.05,5.86-10.6,12.16-15.25,17.41-.48.54-1.18.79-1.87.66-.69-.12-1.29-.61-1.58-1.29l-4.11-9.42.27,2.88c.09.97-.42,1.88-1.26,2.26-.84.38-1.81.13-2.42-.6l-1.3-1.58c-4.08,3.54-9.04,7.88-13.07,11.48-4.12,3.55-7.54,6.33-8.07,6.87-.22.25-.48.43-.77.55.08-2.01.22-4.03.36-6.05,1.2-1.02,2.71-2.3,4.39-3.72.83-.71,1.71-1.45,2.61-2.22.88-.78,1.8-1.58,2.72-2.4,3.69-3.26,7.61-6.66,10.72-9.36.4-.35.89-.51,1.37-.5l-.95-10.31c-.1-1.09.55-2.08,1.54-2.36.99-.27,2.03.25,2.47,1.24l8,18.36c2.89-3.27,8.33-9.42,13.67-15.6,4.53-5.25,8.06-9.45,10.56-12.47,1.41-1.71,2.58-3.13,3.41-4.13.41-.5.74-.9.96-1.17.12-.14.21-.25.27-.33.24-.28.49-.47.73-.59ZM673.68,555.78l-.04.04.04-.04Z"/>
          </g>
          <g>
            <path class="cls-1" d="M885.42,461.33c-.75-.65-1.8-.73-2.56-.19-.77.54-1.07,1.57-.73,2.51l2.91,8.27-5.2-5.58c-.66-.7-1.65-.91-2.46-.52-.81.4-1.26,1.3-1.12,2.25l1.1,7.24-6.36-7.65c-.65-.78-1.7-1.04-2.56-.62h-.01c-.85.43-1.28,1.41-1.06,2.4l3.02,13.63c-12.07-3.09-24.06-6.23-36.01-9.49-1.23,1.09-2.41,2.24-3.51,3.47.16.1.34.17.53.22,13.72,3.75,27.52,7.39,41.4,10.92.71.18,1.44-.02,1.94-.54.5-.51.71-1.27.54-2.01l-1.89-8.52,5.6,6.74c.63.76,1.65,1.02,2.5.64.85-.38,1.34-1.3,1.19-2.27l-1.21-7.95,7.39,7.92c.71.76,1.82.93,2.66.41.84-.52,1.19-1.59.84-2.58l-3.6-10.2c10.94,9.49,21.96,18.97,33.04,28.35-.06-1.9-.09-3.81-.12-5.73-12.17-10.3-24.26-20.69-36.25-31.12Z"/>
            <path class="cls-1" d="M907.51,468.44c-5.83-1.05-10.51-1.82-13.92-2.24-5.66-.69-8.12-.65-8.75,1.51-.35,1.2-.26,3.22.06,5.91-4.28-5.14-6.27-6.07-7.4-6.33-1.01-.23-1.94,0-2.64.63-1.32,1.21-1.79,3.76-.09,12.7.07.37.14.74.21,1.1l-7.57-8.9c-.59-.7-1.52-.97-2.33-.69-.81.28-1.35,1.06-1.35,1.97-.04,12.69-.15,25.4-.35,38.12,1.43,1.08,2.83,2.21,4.24,3.33.18-11.87.29-23.74.34-35.58l9.39,11.04c.66.77,1.71,1.01,2.57.58l.03-.02c.86-.45,1.29-1.46,1.03-2.46,0-.02-.25-1.03-.62-2.57-.36-1.54-.83-3.62-1.26-5.78-.9-4.57-1.15-7.07-1.18-8.4.85.72,2.14,2.01,3.9,4.14,2.17,2.63,3.9,5.12,4.15,5.6.63,1.26,1.79,1.56,2.66,1.31,1.74-.51,1.53-2.39,1.42-3.3-.08-.65-.2-1.51-.34-2.5-.26-1.77-.79-5.47-.84-7.41,1.74,0,6.54.42,19.77,2.88,4.41.81,8.73,1.67,12.05,2.31,1.53-1.33,3.19-2.45,4.91-3.49-3.38-.68-10.75-2.14-18.08-3.48Z"/>
          </g>
        </g>
        <g>
          <path class="cls-1" d="M77.07,426.52c-.45-.19-.9-.38-1.33-.56l1.44-4.26c.51.22,1.02.44,1.56.66,6.07,2.44,11.13,3.6,15.55,4.18,4.43.56,8.21.57,11.97.49-2.31-1.11-4.83-2.18-7.73-3.18-2.9-1-6.17-1.93-9.96-2.86-3.96-.97-7.36-1.67-10.41-2.2l1.44-4.28c2.97.52,6.27,1.2,10.05,2.13,3.03.74,5.74,1.5,8.2,2.27,2.49.78,4.74,1.62,6.79,2.48,4.11,1.73,7.47,3.58,10.74,5.42,7.08-.02,15.18.6,27.16,4.02,7.43,2.12,12.96,4.36,17.67,6.49.35-.03.7-.07,1.04-.1,5.62-.53,10.93-1.03,20.39,1.43,9.64,2.51,14.71,5.76,19.61,8.91l.11.07c5.11.03,10.11.16,17.54,1.94,7.53,1.8,11.33,3.84,15.35,5.99.93.5,1.87,1,2.88,1.52.61-.06,1.22-.12,1.82-.17,5.41-.53,11.01-1.07,20.03,1.45,7.48,2.09,12.24,4.83,16.47,7.6,7.7.43,15.82,1.11,26.6,4.76,3.13,1.06,6.15,3.01,9.35,5.08.2.13.4.26.61.39,1.72-.15,3.43-.33,5.08-.5,6.65-.69,12.94-1.34,17.31-.14,4.39,1.21,6.46,3.38,8.46,5.47.37.39.74.78,1.13,1.17,4.99-.68,9.65-1.19,13.2-.31,7.16,1.76,11.44,5.28,15.59,8.69l.35.29c5.06.18,10.33.4,18.96,2.69,3.63.96,6.5,1.87,8.92,2.74,3.43,1.24,5.94,2.4,8.38,3.54l.97-.18c6.14-1.15,12.48-2.34,22.35-.03,6.38,1.49,10.51,3.57,14.02,5.89,1.45.96,2.79,1.96,4.15,2.98,4.49.14,9.46.54,16.35,2.05,10.58,2.35,15.86,5.13,21.03,8.17l.64.37.52.3c.78.45,1.56.9,2.36,1.35.42-.04.85-.08,1.27-.12,4.59-.45,9.58-.88,16.19-.48l-.96,4.42c-3.31-.19-6.19-.12-8.86.01,2.32,1.01,4.99,2,8.21,2.98l-.96,4.39c-1.81-.55-3.46-1.1-4.99-1.65-1.52-.57-2.91-1.13-4.2-1.69-2.58-1.12-4.74-2.23-6.69-3.3-5.29.47-10.64.57-17.88-1.13-1.3-.31-2.67-.69-4.1-1.14-.27-.09-.55-.17-.82-.26-2.44-.79-4.58-1.62-6.5-2.47-4.31-1.91-7.44-3.96-10.15-5.92-.68-.5-1.33-.99-1.97-1.46-.72-.02-1.43-.03-2.16-.05h-.44c-5.99-.12-12.26-.31-22.62-2.94-4.59-1.17-7.92-2.29-10.67-3.39-.15-.06-.3-.12-.45-.18-.6-.24-1.17-.49-1.72-.73-.9-.39-1.75-.78-2.59-1.17-5.53.98-11.54,1.65-20.33-.47l-.18-.04c-7.84-1.92-12.63-5.39-16.69-8.68-5.34-.2-10.67-.57-19.72-3.46-4.49-1.44-7.25-3.21-9.27-4.93-6.09.85-12.38,1.73-17.38.51l-.09-.02c-5.6-1.37-10.16-4.04-14.2-6.61-5.94.48-12.05.59-17.32-.77-8.44-2.18-13.38-5.5-18.16-8.71-.45-.3-.91-.61-1.36-.91l-.82-.04c-8.52-.46-17.34-.94-29.3-5.38-3.14-1.17-5.6-2.27-7.7-3.31-4.67.37-9.91.4-17.72-1.5l-.13-.03c-8.8-2.16-13.77-5.1-18.32-8-2.99-.02-6.08-.03-9.85-.36-12.19-1.05-18.93-4.25-26.72-7.95-1.32-.62-2.67-1.26-4.1-1.92-4.56.39-9.94.61-18.21-.73-13.09-2.12-19.87-5.87-26.95-9.85-1.69.02-3.32.07-4.95.12-4.45.14-8.77.27-13.8-.22-5.1-.52-11.03-1.7-18.43-4.67ZM458.07,513.5c.85.51,1.76,1.02,2.74,1.52,2.37,1.21,5.14,2.38,8.56,3.49.81.26,1.59.5,2.35.72.76.22,1.5.42,2.22.59,3.6.86,6.68,1.22,9.56,1.3-4.25-2.33-8.97-4.37-17.21-6.19-2.6-.57-4.9-.97-6.99-1.26-.42-.05-.82-.11-1.22-.16ZM416.96,503.07c.65.24,1.33.48,2.06.71.54.17,1.1.35,1.68.53.39.12.79.24,1.21.36,1.04.3,2.16.61,3.38.92,5.9,1.5,10.34,2.17,14.23,2.49,1.13.09,2.22.16,3.29.2-2.71-1.61-5.88-3.02-10.31-4.12-.26-.06-.52-.12-.78-.19-6.07-1.42-10.61-1.41-14.76-.91ZM379.86,495.76c2.58,1.54,5.6,2.89,9.47,3.84l.16.04c4.36,1.05,7.94,1.36,11.15,1.27-2.54-.96-5.61-1.96-9.65-3.04-4.5-1.19-8.04-1.79-11.13-2.12ZM349.39,486.05c1.07.52,2.32,1.02,3.79,1.49,4.96,1.59,8.75,2.37,12.05,2.79-2.52-1.71-5.35-3.17-9.08-4.09-1.8-.44-4.14-.42-6.76-.19ZM318.45,480.04c2.37,1.23,4.92,2.31,7.72,2.99l.08.02c3.38.82,7.8.47,12.34-.11-1.36-1.31-2.8-2.36-5.34-3.06-3.45-.95-8.92-.45-14.8.15ZM283.41,471.1c3.07,1.76,6.56,3.33,11.28,4.56,2.9.75,6.17,1,9.56.97-1.22-.68-2.41-1.24-3.57-1.64-6.58-2.23-12.16-3.3-17.27-3.89ZM246.02,460.94c7.37,2.68,13.37,3.77,19.05,4.34-2.11-.94-4.49-1.82-7.26-2.59-4.81-1.34-8.51-1.75-11.79-1.75ZM209.94,452.53c2.61,1.19,5.65,2.28,9.53,3.23l.12.03c3,.73,5.6,1.16,7.93,1.38-2.51-1.15-5.43-2.21-9.65-3.22-3.01-.72-5.58-1.16-7.93-1.42ZM168.62,441.27c6.35,2.94,12.26,5.19,22.07,6.03.56.04,1.1.08,1.63.12-3.09-1.61-6.74-3.11-11.79-4.42-4.98-1.29-8.66-1.71-11.91-1.73ZM124.84,431.78c4.49,2.02,9.76,3.76,17.11,4.95,2.59.42,4.86.68,6.91.82-2.28-.81-4.77-1.62-7.53-2.4-6.52-1.86-11.85-2.86-16.49-3.37Z"/>
          <path class="cls-1" d="M508.04,532.35c-.45-.13-.9-.27-1.33-.4l.96-4.39c.52.16,1.05.31,1.59.48,3.09.9,5.89,1.59,8.47,2.08,2.59.47,4.96.78,7.17.96,2.21.18,4.27.24,6.24.22,1.97-.02,3.87-.16,5.74-.3-4.74-1.9-10.28-3.82-17.99-5.12-4.02-.72-7.48-1.14-10.57-1.31l.96-4.42c3.08.19,6.51.62,10.41,1.32,6.25,1.06,11.13,2.49,15.3,4,4.17,1.49,7.62,3.15,10.99,4.8,3.52-.22,7.31-.4,11.73-.14,4.41.29,9.47.76,15.56,1.89,3.77.73,7.1,1.39,10.09,2.13,2.99.74,5.65,1.51,8.12,2.29.34-.08.68-.16,1.02-.25,2.74-.67,5.39-1.33,8.56-1.68,1.58-.18,3.29-.28,5.2-.27,1.92-.03,4.04,0,6.44.21,9.8.88,15.34,2.83,20.78,4.95l.12.04c2.48-.47,4.94-1.11,7.71-1.51,2.78-.43,5.87-.68,9.65-.75,3.82-.17,6.77-.03,9.33.28,2.56.29,4.72.82,6.95,1.17,1.03.18,2.07.37,3.19.54.56-.25,1.12-.49,1.67-.73,2.48-1.1,4.96-2.2,8-3.11,3.07-.96,6.69-1.7,11.38-1.99,7.76-.48,13.15.57,18.05,1.79,7.41-2.12,15.27-4.16,26.59-4.48,3.29-.1,6.78.65,10.51,1.41.23.05.47.09.71.14,1.54-.78,3.06-1.56,4.53-2.34,2.94-1.56,5.78-3.1,8.43-4.33,1.34-.6,2.53-1.18,3.71-1.61,1.18-.42,2.29-.77,3.35-.98,1.07-.21,2.04-.27,2.93-.29.89-.03,1.72.04,2.5.16,1.56.26,2.93.69,4.29,1.11.5.16,1.01.31,1.54.46,3.91-3.1,7.4-5.95,10.72-7.21,6.69-2.5,12.12-2.26,17.49-2.09h.45c4.1-2.94,8.31-6.06,16.43-9.75,3.42-1.55,6.23-2.67,8.65-3.52,3.44-1.21,6.11-1.9,8.72-2.56l.64-.76c4.01-4.79,8.13-9.74,17.15-14.28,5.83-2.96,10.32-4.01,14.49-4.51,1.73-.2,3.4-.31,5.09-.4,3.52-2.78,7.54-5.73,13.76-9.05,9.54-5.11,15.39-6.41,21.28-7.49l.73-.13.59-.11c.88-.17,1.77-.33,2.68-.5.3-.3.59-.61.89-.92,3.22-3.3,6.7-6.93,12.03-10.86l2.12,3.99c-2.65,1.98-4.81,3.89-6.75,5.74,2.41-.75,5.09-1.72,8.18-3.03l2.11,3.97c-6.93,2.97-12.02,4.32-16.37,5.21-3.72,3.78-7.7,7.37-14.31,10.77-1.19.61-2.48,1.21-3.85,1.81-.26.11-.53.22-.8.34-2.37.99-4.53,1.76-6.55,2.35-4.53,1.33-8.24,1.83-11.58,2.09-.84.06-1.66.11-2.45.16-.56.45-1.11.91-1.67,1.36l-.34.28c-4.64,3.79-9.57,7.71-19.24,12.33-4.28,2.05-7.57,3.3-10.4,4.21-.16.05-.31.1-.47.15-.62.19-1.21.37-1.79.54-.95.27-1.85.51-2.74.74-3.66,4.27-7.92,8.61-16.05,12.51l-.17.08c-7.3,3.48-13.31,3.83-18.57,3.73-1.09.79-2.21,1.55-3.4,2.31-1.19.77-2.46,1.52-3.9,2.26-2.85,1.5-6.35,2.94-11.03,4.28-4.67,1.28-8.04,1.22-10.68.74-4.91,3.81-10.47,7.52-15.84,8.4l-.1.02c-5.81.95-11.09.2-15.83-.72-5.39,2.61-11.14,4.88-16.61,5.41-8.76.84-14.54-.66-20.11-2.11-.53-.14-1.06-.28-1.59-.41l-.79.23c-8.22,2.36-16.68,4.78-29.43,4.52-3.4-.12-6.11-.4-8.45-.72-1.09.45-2.23.9-3.44,1.32-.61.21-1.24.42-1.89.62-.65.18-1.33.34-2.05.5-2.84.62-6.16,1.07-10.24,1.23h-.13c-1.15.04-2.24.09-3.29.03-1.04-.05-2.04-.12-2.99-.21-1.9-.18-3.62-.44-5.22-.76-3.19-.65-5.87-1.43-8.42-2.42-2.93.6-5.99,1.22-9.79,1.67-3.08.41-5.83.43-8.38.38-2.55-.07-4.87-.29-7.08-.61-2.21-.3-4.27-.81-6.31-1.36-2.04-.55-4.05-1.16-6.12-1.8-1.4-.42-2.84-.85-4.35-1.31-2.24.48-4.7.92-7.66,1.2-1.48.14-3.08.25-4.84.29-.88.02-1.8.03-2.77.02-.96-.02-1.97-.08-3.02-.14-13.37-.8-20.5-4.14-27.85-7.61-1.69.11-3.32.25-4.95.4-4.45.38-8.81.79-13.87.47-2.54-.14-5.26-.43-8.28-.94-3.02-.5-6.3-1.31-9.99-2.37ZM887.13,478.43c.98-.17,2-.37,3.07-.62,2.59-.61,5.46-1.53,8.77-2.91.78-.33,1.53-.66,2.25-.99.72-.33,1.41-.66,2.07-1,3.3-1.68,5.87-3.42,8.1-5.23-4.74,1-9.66,2.51-17.09,6.49-2.34,1.27-4.36,2.44-6.14,3.58-.35.23-.7.45-1.03.68ZM848.95,496.92c.65-.23,1.33-.48,2.04-.76.53-.21,1.07-.42,1.64-.66.38-.16.76-.33,1.16-.5.99-.43,2.05-.92,3.18-1.46,5.5-2.62,9.33-4.98,12.51-7.23.93-.66,1.8-1.31,2.65-1.96-3.11.51-6.44,1.48-10.54,3.48-.24.12-.48.24-.72.36-5.57,2.79-9.04,5.72-11.92,8.73ZM815.57,514.75c2.98-.42,6.2-1.28,9.79-2.99l.15-.07c4.05-1.95,7-3.96,9.44-6.07-2.58.87-5.58,2.03-9.39,3.75-4.24,1.93-7.37,3.7-9.99,5.38ZM785.15,524.88c1.18-.14,2.5-.39,4-.8,5.02-1.44,8.58-3.03,11.48-4.66-3.05.12-6.17.6-9.74,1.91-.86.31-1.77.82-2.73,1.42-.96.59-1.97,1.32-3.01,2.12ZM754.72,533.34c2.67.26,5.45.26,8.32-.21l.08-.02c.87-.16,1.78-.41,2.7-.74.93-.32,1.86-.74,2.8-1.23.94-.49,1.89-1.03,2.84-1.6.94-.61,1.88-1.25,2.81-1.91-1.81-.52-3.54-.77-6.09-.32-1.73.36-3.77,1.12-6.04,2.23-2.29,1.06-4.8,2.42-7.42,3.8ZM718.71,537.31c3.48.64,7.31.95,12.18.48,2.99-.29,6.16-1.2,9.33-2.43-1.39-.2-2.7-.31-3.93-.27-6.95.21-12.56,1.07-17.58,2.22ZM680.05,540.01c7.84.08,13.86-.84,19.42-2.17-2.3-.2-4.84-.25-7.71-.07-4.99.31-8.61,1.15-11.71,2.24ZM643.03,542.18c1.41.26,2.92.48,4.59.63.83.07,1.7.13,2.61.17.91.02,1.86,0,2.86-.04h.13c3.1-.13,5.73-.44,8.03-.87-2.75-.41-5.84-.63-10.18-.44-3.1.07-5.69.23-8.04.54ZM600.32,539.09c1.68.5,3.33.95,5.01,1.35,1.68.39,3.4.65,5.22.86,1.82.2,3.73.33,5.8.34,2.07,0,4.3-.04,6.75-.37.55-.07,1.09-.14,1.62-.21-3.35-.89-7.2-1.76-12.38-2.17-2.55-.21-4.75-.23-6.72-.19-1.96.02-3.68.16-5.29.39ZM555.76,534.52c2.32.82,4.82,1.63,7.7,2.18,2.87.57,6.1,1,9.82,1.24,2.62.19,4.91.17,6.97.07-1.18-.27-2.41-.53-3.7-.77-1.29-.28-2.63-.55-4.04-.81-3.34-.62-6.35-1.04-9.12-1.33-2.77-.28-5.28-.51-7.61-.58Z"/>
          <path class="cls-1" d="M937.33,460.32c-.43.19-.85.37-1.27.56l-2.11-3.97c.5-.22,1-.44,1.52-.66,11.74-5.24,17.65-10.23,23.07-15.43-4.89,1.49-10.34,3.63-17.11,7.55-3.55,2.03-6.44,3.97-8.92,5.84l-2.12-3.99c2.48-1.84,5.37-3.75,8.81-5.73,11.01-6.37,18.63-8.26,25.92-9.99,5.19-4.82,11.54-9.84,22.58-15.56,6.88-3.53,12.31-5.69,17.03-7.63.21-.27.42-.54.63-.82,1.68-2.21,3.21-4.39,5.18-6.72,1.95-2.34,4.32-4.83,7.4-7.98.78-.81,1.51-1.57,2.21-2.3.67-.75,1.38-1.4,1.98-2.09.61-.68,1.26-1.28,1.83-1.91.58-.62,1.15-1.2,1.73-1.76,2.2-2.3,4.25-4.26,6.18-6.35l.08-.09c.37-2.45.74-4.87,1.16-7.58.46-2.69,1-5.67,1.86-9.28.87-3.66,1.69-6.48,2.57-8.89.88-2.41,1.81-4.42,2.75-6.49.44-.96.88-1.93,1.33-2.97-.1-.61-.19-1.21-.29-1.81-.87-5.37-1.78-10.92.16-20.09,1.61-7.6,4.04-12.52,6.53-16.93-.06-7.71.09-15.86,3.04-26.85.86-3.19,2.61-6.33,4.47-9.65.12-.21.23-.42.35-.63-.26-1.71-.55-3.4-.83-5.04-.56-3.29-1.09-6.52-1.39-9.42-.3-2.9-.4-5.47-.05-7.6.69-4.26,2.43-6.41,4.09-8.69.3-.42.59-.85.89-1.3-.91-2.25-1.85-4.36-2.72-6.14-.39-.9-.83-1.74-1.13-2.56-.35-.81-.62-1.58-.81-2.34-.81-3.03-1.34-5.65-1.79-8.24-.45-2.58-.8-5.1-1.43-7.66l-.1-.44c-3.97-3.05-8.2-5.69-15.01-11.28-2.88-2.35-5.16-4.35-7-6.13-2.63-2.53-4.45-4.61-6.21-6.64l-.96-.23c-6.07-1.45-12.36-2.94-20.43-9.06-5.23-3.96-8.15-7.53-10.41-11.08-.93-1.47-1.75-2.93-2.58-4.42-4.04-1.96-8.43-4.34-14.1-8.56-8.71-6.47-12.34-11.25-15.8-16.14l-.42-.6-.35-.5c-.52-.73-1.04-1.47-1.57-2.23-.4-.14-.8-.28-1.2-.43-4.35-1.54-9.09-3.22-14.88-6.47l2.77-3.57c2.9,1.6,5.52,2.78,8.01,3.78-1.68-1.89-3.66-3.93-6.13-6.2l2.75-3.55c5.54,5.07,8.86,9.14,11.49,12.72,4.97,1.81,9.89,3.89,15.75,8.44,1.06.82,2.14,1.72,3.26,2.71.21.19.43.38.64.57,1.9,1.72,3.51,3.35,4.9,4.91,3.14,3.51,5.17,6.65,6.85,9.54.41.73.81,1.44,1.21,2.14.65.31,1.3.61,1.95.92l.4.19c5.42,2.54,11.08,5.26,19.47,11.88,3.72,2.93,6.3,5.32,8.37,7.44.11.12.23.24.34.35.45.47.87.92,1.28,1.36.66.73,1.28,1.43,1.88,2.12,2.73.68,5.53,1.47,8.55,2.79,3.03,1.33,6.22,3.1,9.9,5.99l.15.12c3.27,2.61,5.69,5.41,7.45,8.23,1.76,2.82,2.85,5.64,3.6,8.29,2.19,1.82,4.37,3.95,6.31,6.92,1.93,2.98,3.64,6.91,4.34,12.23.14,1.32.23,2.53.16,3.65-.02,1.12-.16,2.12-.34,3.02-.16.91-.41,1.72-.66,2.46-.25.74-.54,1.41-.86,2.02,2.21,5.97,3.6,12.62,2.73,17.8l-.02.1c-.5,2.92-1.35,5.49-2.35,7.91-1.01,2.42-2.18,4.65-3.33,6.75.86,5.89,1.36,11.99.34,17.34-1.64,8.57-4.63,13.71-7.53,18.68-.27.47-.55.94-.82,1.42v.82c.09,8.54.18,17.36-3.48,29.59-.96,3.21-1.91,5.73-2.81,7.89.64,4.63,1.11,9.89-.69,18.01l-.03.13c-1.04,4.57-2.49,8.17-4.12,11.12-.79,1.48-1.68,2.79-2.54,4-.9,1.2-1.79,2.31-2.72,3.35-.55,3.04-1.32,6.21-2.91,9.95-.34.75-.68,1.48-1.02,2.19-.36.7-.75,1.36-1.13,2.01-.74,1.32-1.61,2.47-2.43,3.58-1.73,2.15-3.5,3.96-5.35,5.44-3.69,3.01-7.49,4.93-11.54,6.72-1.36.61-2.79,1.19-4.26,1.8-2.88,3.62-6.73,7.66-13.69,12.35-11.01,7.46-18.57,9.31-26.48,11.2-1.23,1.16-2.4,2.31-3.57,3.44-6.39,6.2-12.44,12.11-26.42,18.33ZM983.52,154.36c-.57-.82-1.19-1.65-1.88-2.51-1.66-2.07-3.71-4.28-6.37-6.69-.63-.57-1.24-1.11-1.85-1.61-.6-.51-1.2-.99-1.78-1.45-2.92-2.27-5.57-3.87-8.14-5.14,2.89,3.87,6.34,7.71,13.11,12.74,2.14,1.59,4.07,2.9,5.86,4.01.36.22.71.43,1.05.64ZM1016.83,180.61c-.5-.48-1.02-.97-1.59-1.49-.42-.38-.86-.76-1.32-1.17-.31-.27-.63-.54-.96-.82-.83-.7-1.73-1.43-2.72-2.21-4.78-3.77-8.57-6.19-11.99-8.06-1-.55-1.97-1.05-2.92-1.52,1.82,2.58,4.15,5.15,7.75,7.96.21.16.42.32.64.49,4.97,3.76,9.12,5.6,13.11,6.83ZM1047.58,202.92c-1.54-2.67-3.73-5.32-6.89-7.85l-.13-.11c-3.59-2.82-6.73-4.51-9.69-5.75,1.93,1.91,4.33,4.06,7.59,6.72,3.62,2.97,6.55,5.12,9.13,6.98ZM1060.8,231.96c.05-.59.11-1.23.1-1.91-.02-.68-.06-1.41-.14-2.19-.34-2.62-.99-4.86-1.76-6.78-.83-1.9-1.74-3.49-2.76-4.83.52,3.03,1.07,6.02,2.04,9.58.43,1.73,1.46,3.72,2.53,6.13ZM1059.31,263.45c1.08-2.45,2-5.05,2.48-7.92v-.08c.59-3.45-.11-7.95-1.41-12.32-1.07,1.54-1.92,3.07-2.33,5.62-.56,3.45.28,8.86,1.26,14.7ZM1052.64,299c1.56-3.17,2.91-6.76,3.82-11.55.56-2.94.6-6.22.36-9.61-.6,1.26-1.09,2.49-1.41,3.67-1.8,6.71-2.51,12.34-2.78,17.48ZM1044.9,336.97c2.2-7.52,2.91-13.59,3.11-19.29-.8,2.17-1.52,4.6-2.12,7.41-1.03,4.89-1.2,8.6-.99,11.88ZM1037.7,373.37c1.33-2.55,2.53-5.62,3.43-9.54l.03-.12c.67-3.05,1.01-5.68,1.1-8.02-1.02,2.58-1.95,5.54-2.94,9.77-.34,1.51-.68,2.9-.92,4.21-.28,1.3-.5,2.53-.7,3.7ZM1013.15,407.62c3.12-1.56,6-3.31,8.73-5.83,2.71-2.5,5.27-5.81,7.25-10.35.22-.52.44-1.01.63-1.51-1.24,1.23-2.49,2.57-3.9,4.03-1.38,1.48-2.92,3.08-4.68,4.92-3.5,3.58-5.99,6.21-8.03,8.74ZM975.43,431.7c4.66-1.58,9.71-3.9,15.89-8.08,2.17-1.47,4.01-2.84,5.59-4.15-2.21,1-4.58,2.12-7.12,3.43-6.02,3.12-10.6,6.02-14.35,8.81Z"/>
        </g>
      </g>
      <g>
        <g>
          <g>
            <path class="cls-1" d="M684.8,15.32c-.04-2.35-.18-4.74-.27-7.05.06-.03.11-.05.17-.07l.14-.04c1.02,2.23,2.64,4,4.15,5.83.83,2.54,1.92,5.92,2.96,9.33,2.19,7.18,3.18,11.06,3.67,13.22.49,2.15.46,2.59.43,2.91-.02.57.25,2.48.66,5.05l1.27-7.3c.19-1.09,1.09-1.86,2.13-1.83,1.04.03,1.89.85,2.02,1.94l.68,6.06,1.23-3.83c.33-1.03,1.32-1.66,2.33-1.49,1.01.17,1.74,1.09,1.73,2.19l-.04,3.49,1.89-5.72c.34-1.02,1.32-1.65,2.33-1.49,1.01.15,1.74,1.08,1.75,2.15.07,7.35.23,15.68.52,17.37.3.55.83,1.71,2.07,4.62.49,1.16,1.14,2.72,1.85,4.43.08.21.19.43.32.65.13.22.25.44.38.67.26.45.52.9.78,1.36.53.91,1.08,1.82,1.63,2.7,1.32,3.24,2.76,6.37,4.08,9.62-1.21-1.69-2.51-3.3-3.97-4.75-.73-.73-1.5-1.42-2.34-2.04-.8-.62-1.87-1.21-2.45-1.64-.98-2.32-2.17-5.27-3.76-8.87-.84-1.91-1.74-3.89-1.97-4.31-.39-.57-.71-1.22-.99-8.06l-2.46,7.59c-.33,1.04-1.26,1.67-2.2,1.5-.95-.16-1.64-1.08-1.63-2.18l.02-3.91-.21.67c-.31.99-1.18,1.62-2.11,1.52-.93-.09-1.66-.89-1.78-1.92l-.22-1.99-.93,5.23c-.19,1.05-1,1.82-1.95,1.84-.95.03-1.77-.7-1.97-1.75-.32-1.78-1.02-5.59-1.68-9.25-.64-3.67-1.22-7.19-1.2-8.44-.08-.91-.99-4.39-2.32-8.91-1.33-4.51-3.08-10.04-4.76-15.06ZM691.89,39.18v.07s0-.07,0-.07Z"/>
            <path class="cls-1" d="M674.15,68.5c3.89-5.22,8.43-11.17,12.65-16.46,4.22-5.3,8.13-9.95,10.52-12.7.78,4.56,1.74,13.34,2.35,21.32.08,1.09.85,1.93,1.8,1.99.95.07,1.82-.67,2.06-1.73.88-3.95,1.78-7.9,2.69-11.85.27,4.47.5,8.96.7,13.43.05,1.04.71,1.89,1.59,2.03.89.15,1.76-.43,2.12-1.4,2.56-6.89,5.27-13.8,8.1-20.61,1.17-1.81,2.51-3.82,3.93-5.91,1.41-2.09,2.8-4.27,4.12-6.38,2.64-4.22,4.91-8.29,6.35-10.91.55-2.08,1.25-4.1,1.55-6.23-.17-.18-.37-.32-.58-.39-.85.6-1.69,1.2-2.51,1.79-.45.77-1.16,2.01-2.34,4.05-.61,1.01-1.33,2.23-2.2,3.68-.45.73-.93,1.51-1.46,2.37-.53.85-1.09,1.77-1.8,2.75-2.24,3.19-4.39,6.38-5.97,8.79-1.56,2.43-2.61,4.06-2.63,4.09-.08.12-.14.25-.19.38-1.57,3.92-3.08,7.81-4.57,11.76-.25-5.87-.55-11.74-.9-17.62-.07-1.1-.88-1.98-1.93-2.06-1.05-.08-2,.65-2.25,1.72-.98,4.21-1.93,8.43-2.86,12.64-.35-3.4-.69-6.15-1.01-8.19-.62-3.99-1.04-5.32-2.36-5.87-.77-.32-1.65-.15-2.28.43-.58.53-6.03,6.78-11.78,14-5.78,7.21-11.88,15.34-14.76,19.21-.38.97-.8,1.92-1.23,2.87,1.66-.37,3.38-.65,5.06-1Z"/>
          </g>
          <g>
            <g>
              <path class="cls-1" d="M30.87,154.76c-2.12.11-4.23.25-6.32.49l.58-1.4.07-.07c7.33-6.07,14.74-12.06,22.13-17.97.29-.23.63-.39,1.01-.46l7.01-1.33-9.9-1.95c-.99-.2-1.72-1-1.77-1.97-.05-.95.6-1.84,1.57-2.13l15.2-4.53c-4.05-1.99-8.07-4-12.09-6.02l-2.56.32c-1.08.13-2.1-.48-2.42-1.47-.15-.45-.13-.93.03-1.35l-1.86-.94c-.92-.47-1.37-1.47-1.1-2.43.27-.95,1.2-1.6,2.24-1.57l8.8.3c2.91-1.47,6.44-3.25,10.04-5.07,14.92-7.61,17.93-9.88,18.53-10.48.3-.81,1.13-1.39,2.1-1.4.48,0,.92.13,1.29.36-.77,1.65-1.27,3.41-1.75,5.16-.98.69-2.3,1.51-4.06,2.53-3.08,1.79-7.37,4.09-12.74,6.85-1.52.78-3.05,1.56-4.53,2.32l7.8.25c1.17.04,2.11.9,2.16,1.99.04,1.08-.8,2.03-1.96,2.17l-12.34,1.5,11.26,5.59c.8.39,1.27,1.2,1.19,2.04-.08.84-.7,1.55-1.56,1.81l-12.24,3.65,12.36,2.43c1.04.2,1.77,1.07,1.77,2.05,0,.99-.76,1.85-1.8,2.05l-17.23,3.28-9.49,7.64-9.43,7.72ZM79.94,95.44h0s0,0,0,0Z"/>
              <path class="cls-1" d="M24.42,155.51v.03s.13-.3.13-.3h-.12c0,.1,0,.18,0,.27Z"/>
              <path class="cls-1" d="M24.55,155.25l.58-1.4c-.42.38-.66.89-.7,1.41h.12Z"/>
            </g>
            <path class="cls-1" d="M79.92,147.87c-.68-1.04-1.33-2.09-1.89-3.18-7.41-2.75-14.83-5.54-22.25-8.38l13.6-3.36c.99-.24,1.68-1.07,1.69-2.02,0-.95-.67-1.78-1.66-2.02l-16.25-4.04,15.76-3.01c.83-.16,1.49-.74,1.72-1.5.23-.76-.02-1.57-.65-2.1-13.93-11.7-27.68-23.73-41.33-36.1-2,0-4.01-.01-6.01.02.1.37.31.71.62.99,13.35,12.12,26.8,23.92,40.41,35.4l-20.73,3.93c-1.02.2-1.76,1.03-1.79,2.02-.03.98.65,1.86,1.66,2.12l17.16,4.28-11.83,2.91c-.93.23-1.6,1-1.67,1.91-.06.91.5,1.76,1.39,2.1,8.51,3.26,16.99,6.46,25.51,9.61,2.14.1,4.27.29,6.36.67.07-.08.13-.17.18-.26Z"/>
          </g>
          <g>
            <path class="cls-1" d="M90.59,331.76c1.06-.4,1.65-1.48,1.37-2.5-.28-1.02-1.34-1.67-2.47-1.5l-9.87,1.47,9.44-4.86c.87-.45,1.34-1.36,1.15-2.26-.19-.9-.98-1.57-1.96-1.65l-12.07-1.03,11.28-3.62c1-.32,1.64-1.23,1.54-2.2-.1-.97-.89-1.74-1.93-1.85l-16.97-1.87c8.94-6.27,17.87-12.45,26.86-18.56.3-.2.52-.46.68-.74-1.74-.44-3.48-.88-5.23-1.27-9.87,6.69-19.65,13.47-29.45,20.36-.74.52-1.08,1.41-.85,2.24.23.84.97,1.45,1.88,1.55l12.64,1.39-11.74,3.76c-1,.32-1.64,1.26-1.54,2.26.11.99.93,1.77,1.98,1.86l15.16,1.29-14.13,7.31c-.96.5-1.41,1.57-1.08,2.54.33.97,1.37,1.56,2.44,1.4l2.88-.43c-9.68,3.68-19.35,7.41-29.02,11.16-1.07,1.23-2.14,2.47-3.21,3.7,2.29-.23,4.58-.39,6.91-.53,15.09-5.9,30.19-11.7,45.31-17.41Z"/>
            <path class="cls-1" d="M108,362.18c-6.24-3.82-12.51-7.69-18.71-11.61l-9.34-5.92-9.3-5.99c6.95-4.28,13.93-8.52,20.94-12.72.86-.52,1.26-1.51.96-2.41-.3-.9-1.22-1.49-2.23-1.43l-14.21.79,11.87-7.32c.86-.53,1.24-1.52.93-2.42-.31-.9-1.24-1.48-2.26-1.4l-8.08.59,8.09-2.86c1-.35,1.6-1.29,1.46-2.28-.15-.98-1-1.71-2.06-1.76-10.45-.49-20.9-1.02-31.35-1.58.78,1.45,1.51,2.91,2.23,4.38l18.11.89-12.59,4.47c-1.05.37-1.65,1.41-1.43,2.44.23,1.03,1.22,1.73,2.33,1.65l14.91-1.11-11.52,7.13c-.85.53-1.23,1.53-.92,2.43.31.91,1.22,1.5,2.23,1.44l13.96-.8c-5.53,3.34-11.08,6.71-16.59,10.09-.63.39-1.02,1.05-1.04,1.76-.02.71.34,1.37.95,1.77,12,7.81,24.09,15.43,36.2,22.87,2.46,0,4.92.08,7.4.21-.11-.51-.42-.98-.93-1.28Z"/>
          </g>
          <g>
            <path class="cls-1" d="M840.51,84.44c.44,0,.92-.15,1.36-.48,9.27-7.01,18.9-13.65,28.73-20.09-.25.45-.51.91-.76,1.37-1.43,2.6-2.57,4.67-3.39,6.17-.5.92-.86,1.61-1.11,2.12-.16.31-.26.55-.34.74-.73,1.76.38,2.62.62,2.78.76.51,2.04.53,3.03-.66.73-.87,4.64-4.69,8.92-8.76-2.12,5.07-4.27,10.1-6.44,15.14-.41.95-.14,2.02.66,2.57.8.55,1.91.45,2.68-.25l7.94-7.23-5.16,9.89c-.5.95-.28,2.09.54,2.7.81.62,1.98.53,2.77-.2l6.12-5.64-12.46,19.11c-.37.57-.45,1.24-.28,1.83,1.74-.39,3.45-.87,5.16-1.39,6.77-10.58,13.62-21.11,20.51-31.61.62-.94.48-2.14-.32-2.82-.8-.68-2.01-.62-2.84.15l-9.84,9.07,5.07-9.72c.5-.95.27-2.09-.53-2.7-.8-.61-1.97-.54-2.77.19l-9.5,8.66c2.19-5.12,4.37-10.25,6.51-15.4.37-.9.13-1.9-.57-2.49-.05-.04-.11-.08-.16-.12-.83-.57-1.97-.46-2.73.26-.63.6-3.29,3.13-6.33,6.02,1.04-1.82,2.06-3.63,2.98-5.25.5-.89.36-1.98-.35-2.67-.72-.68-1.83-.77-2.68-.21-5.26,3.42-10.47,6.9-15.61,10.47-5.13,3.55-10.19,7.21-15.13,10.97-.88,2.79-2.65,5.12-4.29,7.48Z"/>
            <path class="cls-1" d="M864.85,54.08c-.6,6.26-1.39,12.44-2.28,18.59-.14.96.35,1.83,1.2,2.17.85.34,1.87.05,2.5-.72l2.35-2.85-3.27,6.45c-.46.9-.29,1.94.41,2.56.7.62,1.76.65,2.59.07,3.65-2.54,7.32-5.06,11-7.56l-5.97,11.68c-.39.77-.33,1.66.16,2.31.5.65,1.34.92,2.15.7,13.81-3.64,27.81-7.11,41.08-11.56,1.01-1.03,2.03-2.07,2.78-3.21-1.13-.2-2.27-.54-3.44-.89-11.94,3.85-24.41,7.01-36.79,10.27l7.56-14.78c.46-.9.28-1.96-.44-2.59-.71-.63-1.79-.68-2.63-.12l-10.92,7.5c2.67-5.22,5.29-10.45,7.88-15.72.5-1.02.18-2.22-.75-2.81-.94-.59-2.19-.36-2.9.52l-9.3,11.53c.43-3.21.85-6.45,1.19-9.69-1.26-.92-2.63-1.7-4.04-2.44-.07.19-.12.38-.14.59Z"/>
          </g>
          <g>
            <path class="cls-1" d="M478.98,48.82c.14,1.03.92,1.82,1.89,1.92.97.1,1.88-.53,2.19-1.51l2.48-7.8-.37,5.27c-.08,1.1.61,2.1,1.62,2.35,1.01.25,2.04-.32,2.43-1.35l4.29-11.34,1.87,12.53c.15,1.02.94,1.8,1.91,1.88.97.08,1.87-.56,2.17-1.54l5.11-16.77,23.88,28.75c1.78.21,3.58.37,5.4.38-.04-.45-.21-.89-.52-1.26l-28.06-33.77c-.5-.6-1.27-.87-2-.71-.74.16-1.34.74-1.57,1.5l-3.54,11.62-1.68-11.3c-.15-.99-.9-1.76-1.84-1.87-.94-.11-1.84.46-2.19,1.39l-2.07,5.48.59-8.5c.08-1.12-.64-2.14-1.68-2.36-1.04-.22-2.07.41-2.41,1.48l-4.96,15.57-4.83-36.59c-1.45-.37-2.92-.68-4.39-1.03l6.28,47.58Z"/>
            <path class="cls-1" d="M455.03,70.63c.19-.15.47-.38.83-.67.64-.53,1.59-1.31,2.81-2.32,2.03-1.71,4.86-4.09,8.41-7.07,6.02-5.1,12.13-10.27,12.19-10.32.35-.3.61-.71.72-1.18l4.11-16.53,5.12,18.5c.26.94,1.07,1.59,1.99,1.61.92,0,1.74-.61,2.03-1.54l6.07-19.77c.71,2.17,1.54,4.69,2.38,7.24,4.78,14.27,5.68,15.24,6.22,15.81.53.56,1.28.82,2.02.67,1.98-.38,3.35-2.09,16.68-33.18,1.55-3.58,3.12-7.23,4.34-10.05-.63-2.14-1.13-4.32-1.7-6.49-.92,1.8-2.62,5.69-6.48,14.69-2.77,6.47-5.92,13.79-8.64,19.8-2.11,4.65-3.46,7.37-4.33,8.97-1.92-4.84-5.48-15.48-8.55-25.25-.29-.91-1.09-1.53-1.99-1.53h-.01c-.91,0-1.71.63-1.99,1.54l-5.93,19.3-5.34-19.27c-.26-.95-1.08-1.6-2.01-1.61h-.03c-.94.01-1.76.7-2,1.67l-5.86,23.55c-6.91,5.87-16.3,13.81-20.93,17.66-.52,2.1-1.04,4.23-1.46,6.37.39-.06.83-.23,1.32-.61Z"/>
          </g>
          <g>
            <path class="cls-1" d="M322.52,45.83c.12,1.07.94,1.9,1.95,1.97,1.01.07,1.93-.63,2.18-1.68l1.88-7.82,2.74,8.04c.32.95,1.21,1.56,2.16,1.47.95-.09,1.72-.84,1.89-1.84l1.31-7.9,2.91,6.59c.39.88,1.27,1.39,2.17,1.27.91-.13,1.63-.86,1.8-1.82l.53-3.09c1.67,6.84,3.36,13.94,4.21,17.9,1.44,1.44,2.84,2.93,4.36,4.28.26-.37.41-.83.41-1.33,0-2.18-5.11-22.91-7.31-31.72-.25-1.01-1.13-1.7-2.12-1.66-.98.04-1.81.8-1.99,1.83l-1.06,6.1-2.94-6.67c-.39-.88-1.27-1.4-2.18-1.27-.91.13-1.64.87-1.8,1.83l-1.1,6.6-2.38-7c-.31-.92-1.16-1.52-2.08-1.47-.92.05-1.71.73-1.94,1.68l-.78,3.24-2.36-21.14c-1.51-.58-2.99-1.2-4.45-1.87l3.96,35.44Z"/>
            <path class="cls-1" d="M295.26,63.93c.72-2.44,1.41-4.9,1.89-7.4,6.71-6.27,20.94-19.56,31.2-29.14.53-.49,1.25-.67,1.92-.48.68.19,1.22.72,1.45,1.43l3.2,9.77v-2.89c0-.97.6-1.83,1.47-2.13.87-.3,1.82.04,2.35.83l1.14,1.69c8.79-6.28,21.43-15.36,22.55-16.35.23-.23.49-.39.78-.49-.23,2-.51,4-.81,6-5,3.71-15.18,10.99-21.87,15.76-.43.31-.93.42-1.41.36l-.02,10.36c0,1.09-.74,2.02-1.76,2.2-1.01.18-2-.44-2.34-1.47l-6.23-19.03c-3.19,2.98-9.18,8.59-15.18,14.19-5.09,4.75-9.15,8.54-12.06,11.25-1.65,1.53-3.03,2.81-3.99,3.7-.49.45-.87.8-1.13,1.04-.14.13-.25.22-.32.29-.28.25-.56.4-.83.5ZM362.38,19.3l.04-.04-.04.04Z"/>
          </g>
          <g>
            <path class="cls-1" d="M130.06,49.57c.37.92,1.28,1.47,2.21,1.33.93-.13,1.67-.91,1.8-1.91l1.16-8.69,2.12,7.33c.27.92,1.06,1.56,1.97,1.58.91.01,1.73-.59,2.03-1.5l2.29-6.97,2.25,9.69c.23.99,1.06,1.69,2.02,1.7h.01c.95,0,1.79-.68,2.04-1.66l3.4-13.54,28.29,24.4c1.6-.44,3.18-.97,4.72-1.59-.11-.16-.23-.3-.38-.43l-32.51-28.03c-.55-.48-1.3-.62-1.98-.39-.68.23-1.2.82-1.38,1.55l-2.12,8.46-1.98-8.54c-.22-.96-1.01-1.65-1.94-1.7-.93-.05-1.78.56-2.08,1.5l-2.51,7.63-3.01-10.4c-.29-1-1.19-1.65-2.18-1.57-.98.08-1.78.88-1.92,1.92l-1.43,10.72-8.14-20.16c-1.27-3.38-2.42-6.73-3.59-10.13l-3.4-10.18c-.78,1.69-1.64,3.37-2.52,5.05,2.54,7.49,5.06,14.96,7.86,22.36,1.39,3.71,2.92,7.4,4.41,11.09l4.48,11.07Z"/>
            <path class="cls-1" d="M113.67,32.93c2.27,1.9,4.36,3.57,6.26,5,1.91,1.42,3.64,2.62,5.04,3.58,4.73,3.21,6.96,4.28,8.51,2.64.86-.91,1.69-2.76,2.64-5.3,1.49,6.52,2.86,8.25,3.75,8.99.8.66,1.74.88,2.65.62,1.74-.49,3.31-2.55,5.81-11.31.1-.36.2-.72.3-1.08l2.8,11.35c.22.89.93,1.55,1.79,1.65.86.11,1.69-.35,2.1-1.17l17.16-34.03c-.8-1.6-1.56-3.23-2.33-4.85l-16.01,31.75-3.47-14.07c-.24-.98-1.08-1.67-2.03-1.67h-.04c-.97.02-1.8.73-2.02,1.74,0,.02-.24,1.03-.59,2.57-.37,1.54-.88,3.61-1.47,5.73-1.25,4.49-2.16,6.83-2.73,8.03-.43-1.03-1.01-2.76-1.62-5.45-.75-3.33-1.17-6.33-1.18-6.87,0-1.41-.89-2.2-1.77-2.37-1.78-.34-2.44,1.44-2.76,2.3-.23.61-.5,1.43-.83,2.38-.58,1.7-1.78,5.24-2.61,6.99-.77-.4-2.19-1.23-4.74-3-2.54-1.77-6.28-4.45-11.32-8.76-3.38-2.87-6.61-5.77-9.16-8.01-1.98.37-4.01.5-6.05.55,2.66,2.27,8.23,7.29,13.9,12.08Z"/>
          </g>
        </g>
        <g>
          <path class="cls-1" d="M946.08,116.44c.35.31.69.62,1.02.93l-2.75,3.55c-.4-.36-.81-.73-1.23-1.12-9.56-8.56-16.5-11.95-23.43-14.84,3.31,3.89,7.48,8.02,13.8,12.62,3.31,2.41,6.26,4.26,8.97,5.76l-2.77,3.57c-2.7-1.52-5.63-3.37-8.85-5.72-10.31-7.5-15.11-13.74-19.59-19.75-1.62-.72-3.28-1.49-5.01-2.38-1.73-.88-3.53-1.89-5.44-3.09-3.81-2.39-7.95-5.51-12.56-9.72-5.73-5.23-9.64-9.71-12.92-13.69-.33-.12-.65-.25-.98-.37-5.29-1.96-10.19-3.85-17.71-9.72-7.69-5.93-11.23-10.48-14.97-14.86l-.08-.09c-.6-.17-1.2-.4-1.79-.53-.59-.15-1.18-.29-1.77-.44-1.16-.35-2.42-.54-3.68-.85-.63-.17-1.3-.28-1.99-.42-.69-.14-1.38-.3-2.11-.47-1.5-.25-3.04-.66-4.82-.97-3.55-.74-6.35-1.27-8.76-1.95-1.22-.29-2.34-.61-3.42-.95-1.09-.33-2.15-.64-3.22-.96-1-.32-2.02-.56-3.1-.85-.58.2-1.15.38-1.71.59-5.09,1.82-10.11,3.88-19.44,4.2-7.71.25-13.04-.82-17.95-2.12-3.73,1.01-7.59,1.99-12,2.62-4.41.62-9.39.87-15.19.21-3.37-.36-6.77-1.79-10.25-3.36-.22-.1-.44-.21-.66-.31-1.69.38-3.38.78-5.03,1.1-3.38.69-6.44,1.31-9.33,1.77-2.86.43-5.47.67-7.67.37-4.42-.56-6.76-2.35-9.06-4.09-.42-.33-.86-.64-1.3-.96-4.78,1.52-9.18,2.92-12.8,2.77-7.27-.29-12.18-2.77-16.99-5.16l-.41-.2c-4.97.96-10.13,1.97-19.05,1.79-3.75-.08-6.76-.28-9.32-.56-3.63-.39-6.34-.93-8.98-1.46l-.9.41c-5.69,2.57-11.58,5.22-21.71,5.32-6.56.06-11.06-.98-15.01-2.41-1.64-.59-3.18-1.25-4.74-1.92-4.4.92-9.33,1.71-16.39,1.84-10.84.2-16.64-1.36-22.37-3.13l-.71-.22-.58-.18c-.86-.26-1.72-.53-2.6-.8-.4.13-.81.26-1.22.4-4.38,1.44-9.16,3-15.73,3.97v-4.52c3.28-.51,6.08-1.17,8.66-1.91-2.48-.47-5.3-.87-8.64-1.16v-4.49c7.49.63,12.61,1.82,16.88,3.05,5.04-1.61,10.21-2.96,17.62-2.94,1.34,0,2.75.05,4.24.15.28.02.57.04.86.06,2.55.2,4.82.51,6.88.89,4.63.86,8.16,2.1,11.25,3.37.78.33,1.53.65,2.26.96.7-.15,1.4-.31,2.1-.46l.43-.1c5.84-1.3,11.99-2.61,22.67-2.5,4.74.05,8.24.36,11.17.78.16.02.32.05.48.07.64.1,1.25.2,1.84.3.97.17,1.89.35,2.79.53,5.15-2.26,10.82-4.34,19.87-4.35h.19c8.08.02,13.6,2.28,18.31,4.58,5.27-.99,10.6-1.84,20.14-.76,2.37.27,4.32.74,5.97,1.27,1.65.56,2.99,1.21,4.13,1.88,5.88-1.88,12.12-3.64,17.37-3.02h.1c2.93.36,5.64,1.13,8.13,2.06,1.17.45,2.31.94,3.42,1.45,1.11.51,2.19.99,3.25,1.5,5.68-1.29,11.29-2.62,16.48-2.62,4.16.02,7.64.36,10.78.94,3.14.58,5.94,1.36,8.7,2.13.52.14,1.05.29,1.58.44l.79-.22c4.11-1.13,8.31-2.29,13.13-3.04,4.77-.74,10.12-1.17,16.62-.68,3.41.27,6.12.72,8.46,1.25,2.28-.72,4.75-1.34,7.74-1.66,1.5-.14,3.11-.25,4.9-.18,1.78.02,3.74.26,5.88.59l.14.02c4.83.88,8.63,2.48,11.64,4.27,1.49.99,2.84,1.86,3.98,2.95.58.52,1.13,1.04,1.66,1.55.52.51.95,1.05,1.41,1.56,2.91.88,5.91,1.91,9.43,3.55,5.69,2.67,9.72,5.61,13.05,8.61,1.66,1.51,3.15,3.04,4.54,4.64,1.41,1.58,2.73,3.21,4.1,4.9.92,1.14,1.86,2.31,2.85,3.53,4.28,1.66,9.21,3.91,15.98,8.78,5.36,3.85,9.14,7.26,12.19,10.52,3.03,3.24,5.49,6.43,7.89,9.68,1.55.67,3.06,1.29,4.57,1.9,8.24,3.37,16.02,6.55,27.38,16.72ZM579.29,34.52c-.95-.3-1.95-.58-3.02-.83-2.58-.62-5.55-1.12-9.13-1.4-.85-.07-1.66-.11-2.45-.15-.79-.03-1.55-.05-2.29-.06-3.7-.02-6.77.33-9.59.9,4.66,1.3,9.73,2.23,18.16,2.07,2.66-.05,4.99-.19,7.09-.4.42-.05.83-.09,1.23-.13ZM621.7,34.95c-.69-.08-1.4-.15-2.17-.21-.56-.04-1.15-.08-1.76-.12-.41-.02-.83-.04-1.26-.06-1.08-.05-2.24-.08-3.5-.09-6.09-.06-10.56.34-14.42.95-1.12.18-2.2.37-3.24.58,3.02.93,6.43,1.54,10.99,1.57.26,0,.53,0,.8,0,6.23-.06,10.64-1.14,14.55-2.61ZM659.49,33.3c-2.87-.9-6.13-1.51-10.12-1.52h-.17c-4.49,0-8.04.56-11.14,1.4,2.69.33,5.91.58,10.1.67,4.65.09,8.24-.15,11.33-.55ZM691.37,36.32c-1.15-.31-2.47-.58-4.01-.75-5.18-.6-9.06-.55-12.37-.26,2.83,1.13,5.9,1.96,9.72,2.11,1.84.08,4.12-.41,6.66-1.11ZM722.91,37.88c-2.49-.99-5.17-1.83-8.05-2.16h-.08c-3.49-.43-7.86.52-12.24,1.8,1.55,1.08,3.12,1.91,5.71,2.23,3.52.46,8.83-.73,14.67-1.87ZM758.67,39.38c-3.44-.75-7.19-1.24-11.98-1.25-1.47,0-3,.1-4.57.32-1.57.17-3.19.51-4.83.81,1.31.46,2.58.74,3.8.89,6.87.79,12.56.18,17.58-.78ZM797.38,37.66c-7.84-.5-13.91.31-19.49,1.52,2.3.24,4.82.35,7.7.25,4.99-.17,8.62-.86,11.79-1.77ZM834.26,41.1c-.63-.35-1.3-.7-2-1.05-.7-.36-1.47-.61-2.26-.92-1.59-.62-3.39-1.04-5.38-1.45l-.13-.02c-1.56-.23-3.01-.44-4.36-.49-1.36-.04-2.61-.08-3.79,0,1.35.35,2.77.77,4.41,1.08,1.62.42,3.46.71,5.58,1.18,1.53.27,2.92.61,4.23.87.66.12,1.3.25,1.9.4.61.14,1.21.27,1.8.39ZM869.49,65.37c-2.25-2.68-4.5-5.14-7.3-7.5-2.82-2.33-6.15-4.61-10.63-6.7-.51-.23-1-.46-1.48-.68,2.35,2.58,5.21,5.24,9.3,8.42,4.04,3.12,7.18,5.05,10.11,6.45ZM904.66,93.06c-3.25-3.67-7.21-7.5-13.26-11.83-2.13-1.53-4.04-2.77-5.81-3.82,1.68,1.75,3.54,3.58,5.66,5.51,5.01,4.57,9.4,7.78,13.41,10.14Z"/>
          <path class="cls-1" d="M526.49,27.39c.47.04.92.07,1.38.11v4.49c-.55-.04-1.1-.09-1.66-.13-12.8-.93-20.36.63-27.61,2.57,5,1.06,10.82,1.78,18.64,1.56,4.09-.12,7.56-.45,10.62-.92v4.52c-3.07.45-6.53.77-10.51.88-12.74.36-20.36-1.65-27.58-3.67-6.88,1.69-14.89,3.01-27.34,2.51-7.72-.31-13.63-1.18-18.71-2.13-.33.11-.66.23-.99.34-5.34,1.84-10.38,3.59-20.15,3.43-9.96-.16-15.66-2.12-21.16-4.03l-.12-.04c-4.97,1.18-9.86,2.23-17.5,2.26-7.74.03-11.91-1.05-16.33-2.19-1.02-.26-2.06-.53-3.16-.79-.58.2-1.16.4-1.73.6-5.13,1.79-10.44,3.64-19.81,3.33-7.76-.26-13.03-1.8-17.8-3.49-7.58,1.4-15.64,2.67-26.98,1.67-3.29-.29-6.69-1.47-10.28-2.73-.23-.08-.45-.16-.68-.24-1.64.56-3.25,1.13-4.82,1.69-6.3,2.24-12.25,4.36-16.79,4.23-4.55-.13-7.08-1.75-9.51-3.32-.45-.29-.91-.58-1.38-.87-4.69,1.84-9.09,3.43-12.75,3.43-7.37-.02-12.37-2.43-17.2-4.76l-.41-.2c-4.96,1.02-10.14,2.06-19.06,1.87-3.75-.08-6.76-.28-9.32-.56-3.63-.39-6.34-.93-8.98-1.46l-.9.41c-5.69,2.57-11.58,5.22-21.71,5.32-6.56.06-11.06-.98-15.01-2.41-1.64-.59-3.18-1.25-4.74-1.92-4.4.92-9.33,1.71-16.39,1.84-5.38.12-9.71-.27-13.22-.99-3.53-.71-6.37-1.68-9.19-2.69l-.69-.25-.57-.21c-.85-.3-1.7-.61-2.57-.92-.41.11-.82.23-1.23.34-4.53,1.26-8.86,2.65-14.41,3.72l-1.33-4.54c3.13-.58,5.87-1.19,8.52-1.88-2.64-.51-5.73-.97-9.4-1.14l-1.3-4.43c4.51.12,8.31.65,11.52,1.24,1.6.31,3.1.63,4.4.98,1.2.34,2.32.69,3.37,1.04,5.13-1.4,10.38-2.44,17.54-2.26,1.3.03,2.62.08,4.1.19.28.02.57.04.86.06,2.55.2,4.82.51,6.88.89,4.63.86,8.16,2.1,11.25,3.37.78.33,1.53.65,2.26.96.7-.15,1.4-.31,2.1-.46l.43-.1c5.84-1.3,11.99-2.61,22.67-2.5,4.74.05,8.24.36,11.17.78.16.02.32.05.48.07.64.1,1.25.2,1.84.3.97.17,1.89.35,2.79.53,5.14-2.26,10.83-4.34,19.86-4.35h.19c8.07.02,13.55,2.25,18.27,4.49,5.24-1.06,10.5-1.97,19.98-1.3,4.7.34,7.81,1.4,10.17,2.59,5.72-2.27,11.63-4.6,16.77-4.61h.1c5.76.01,10.83,1.52,15.36,3.07,5.66-1.87,11.57-3.43,17.01-3.34,8.72.13,14.3,2.18,19.7,4.17.51.19,1.02.38,1.54.56l.8-.15c8.39-1.57,17.07-3.19,29.74-1.7,3.33.39,5.98.88,8.26,1.4,4.45-1.46,9.53-2.73,17.57-2.73h.13c9.06.02,14.58,1.7,19.7,3.45,2.91-.69,5.92-1.4,9.65-1.98,12.09-1.87,19.39-.35,27.85,1.41,1.43.29,2.9.59,4.43.9,4.34-1.46,9.52-2.94,17.86-3.59,13.22-1.04,20.69,1.01,28.52,3.2,1.64-.42,3.21-.85,4.78-1.28,8.58-2.37,16.68-4.6,31.89-3.5ZM136.31,33.56c-.95-.3-1.95-.58-3.02-.83-2.58-.62-5.55-1.12-9.13-1.4-.84-.06-1.65-.11-2.43-.16-.78-.04-1.53-.06-2.26-.08-3.64-.08-6.71.13-9.54.59,4.58,1.51,9.61,2.64,18.05,2.43,2.66-.05,4.99-.19,7.09-.4.42-.05.83-.09,1.23-.13ZM178.72,33.98c-.69-.08-1.41-.15-2.17-.21-.56-.04-1.15-.08-1.76-.12-.41-.02-.83-.04-1.26-.06-1.08-.05-2.24-.08-3.5-.09-6.09-.06-10.56.34-14.42.95-1.12.18-2.2.37-3.24.58,3.02.93,6.43,1.54,10.99,1.57.26,0,.53,0,.8,0,6.23-.06,10.64-1.14,14.55-2.61ZM216.5,32.31c-2.87-.89-6.13-1.49-10.11-1.5h-.17c-4.49,0-8.04.56-11.14,1.4,2.69.33,5.91.58,10.1.67,4.65.09,8.24-.16,11.32-.57ZM248.4,34.55c-1.16-.25-2.49-.44-4.03-.55-5.2-.37-9.06-.24-12.36.14,2.85,1.07,5.95,1.82,9.78,1.83,1.85,0,4.12-.57,6.62-1.41ZM279.88,33.08c-2.59-.64-5.33-1.08-8.21-1.09h-.08c-3.48,0-7.69,1.38-11.96,3.02,1.63.95,3.28,1.63,5.91,1.71,3.58.11,8.78-1.67,14.34-3.64ZM316.04,33.48c-3.39-.98-7.16-1.69-12.04-1.76-2.99-.05-6.23.49-9.52,1.32,1.35.37,2.64.64,3.86.75,6.92.61,12.59.33,17.7-.3ZM354.78,34.51c-7.79-.86-13.89-.51-19.54.29,2.27.41,4.79.7,7.67.8,4.99.17,8.68-.31,11.87-1.09ZM391.82,34.16c-2.81-.54-6.03-.88-10.02-.89h-.13c-3.09,0-5.72.2-8.03.54,2.71.52,5.8.86,10.14.85,3.1-.01,5.69-.2,8.04-.5ZM434.63,35.33c-6.87-1.35-13.14-2.14-22.87-.64-.55.09-1.09.18-1.61.27,3.38.83,7.29,1.42,12.5,1.51,5.14.08,8.81-.38,11.98-1.13ZM479.41,34.21c-4.84-.9-10.37-1.35-17.8-.77-2.61.2-4.88.49-6.9.83,2.41.25,5.02.44,7.88.56,6.78.27,12.2-.02,16.82-.62Z"/>
          <path class="cls-1" d="M81.01,25.56c.56,0,1.12.02,1.66.04l1.3,4.43c-.59-.03-1.2-.06-1.82-.07-3.52-.1-6.66.14-9.41.54-1.37.23-2.66.48-3.85.79-1.19.34-2.31.65-3.33,1.12-1.04.39-1.96.96-2.84,1.48-.41.31-.82.63-1.22.93-.4.3-.72.71-1.07,1.06-1.33,1.48-2.16,3.35-2.5,5.35l.25-.38c.09-.12.2-.24.31-.36.2-.24.41-.48.62-.73.22-.24.49-.45.73-.68.25-.22.48-.47.79-.65.3-.19.59-.38.9-.57.31-.19.66-.32.99-.49.65-.36,1.4-.57,2.13-.84,2.98-1,6.39-1.38,10.11-1.93,3.91-.54,7.17-1.01,10.1-1.55l1.33,4.54c-2.59.52-5.45.95-8.82,1.43-2.69.41-5.17.71-7.47,1.27-2.29.54-4.38,1.4-5.92,2.65-1.55,1.24-2.53,2.71-3.33,4.11-.81,1.41-1.39,2.81-1.98,4.25.72,3.78,1.46,7.55,1.9,11.68.22,2.07.37,4.23.43,6.57.03,1.17.06,2.38.04,3.66,0,1.42-.04,2.9-.11,4.45-.17,3.85-.44,7.25-.78,10.32-.35,3.07-.79,5.82-1.23,8.36.12.33.24.66.36.98,1.94,5.3,3.74,10.29,3.85,20.02.13,9.92-1.64,15.66-3.3,21.23l-.04.12c.69,2.46,1.35,4.89,1.88,7.66.55,2.77.98,5.88,1.18,9.68.43,7.71-.39,11.92-1.27,16.4-.2,1.04-.4,2.08-.59,3.2.24.57.47,1.13.71,1.69,1.06,2.5,2.13,5.04,2.99,8.12.87,3.08,1.52,6.7,1.7,11.37.35,7.73-.78,13.1-2.04,17.99,2.04,7.43,4.02,15.31,4.16,26.67.04,3.3-.81,6.79-1.66,10.5-.05.23-.11.47-.16.7.73,1.57,1.47,3.11,2.19,4.61,2.9,6.02,5.7,11.66,6.08,16.17.41,4.52-.89,7.21-2.15,9.82-.23.48-.47.97-.69,1.47,2.43,4.42,4.55,8.57,5.02,12.18.97,7.28-.76,12.54-2.37,17.65l-.14.43c1.7,4.77,3.48,9.72,4.63,18.56.5,3.71.76,6.71.89,9.28.17,3.64.1,6.4,0,9.08l.55.82c1.72,2.6,3.49,5.23,5.05,8.46,1.56,3.22,2.9,7.04,3.84,12,1.19,6.42.99,11.01.3,15.16-.28,1.71-.66,3.35-1.02,5,1.74,4.14,3.41,8.82,4.93,15.71,1.14,5.29,1.65,9.42,1.79,12.98.14,3.56-.1,6.55-.36,9.53l-.07.74-.06.6c-.08.89-.16,1.79-.24,2.71.21.37.43.73.64,1.1,2.31,3.99,4.9,8.31,7.24,14.49l-4.41.98c-1.2-3.08-2.46-5.68-3.73-8.03.08,2.52.3,5.37.73,8.7l-4.39.98c-1-7.48-.97-12.75-.64-17.19-1.31-2.3-2.58-4.65-3.69-7.34-1.11-2.69-2.07-5.72-2.81-9.36-.27-1.31-.5-2.71-.69-4.21-.04-.28-.07-.57-.11-.86-.3-2.55-.45-4.85-.48-6.95-.06-4.72.51-8.44,1.17-11.72.18-.82.35-1.62.51-2.4-.28-.66-.56-1.32-.84-1.99l-.17-.4c-1.17-2.76-2.36-5.59-3.48-9.06-1.11-3.47-2.14-7.57-3.02-12.86-.75-4.69-1.04-8.2-1.12-11.17,0-.16,0-.33-.01-.49-.01-.65,0-1.27,0-1.87.01-.99.04-1.92.07-2.84-1.53-2.36-3.05-4.87-4.34-7.9-1.29-3.04-2.38-6.61-3.09-11.1l-.03-.18c-1.18-8.02.22-13.79,1.78-18.79-1.8-5.05-3.42-10.16-3.99-19.67-.27-4.72.39-7.94,1.28-10.44-2.93-5.4-5.99-11.02-6.56-16.15v-.1c-.67-5.75.29-10.97,1.35-15.65-2.48-5.44-4.59-11.19-5.06-16.64-.7-8.73.83-14.5,2.35-20.06.14-.53.29-1.05.43-1.59l-.22-.79c-2.28-8.24-4.58-16.81-3.98-29.59.17-3.36.49-6.04.86-8.36-1.76-4.36-3.3-9.37-3.76-17.43v-.13c-.22-4.54.02-8.22.51-11.41.5-3.19,1.25-5.89,2.02-8.48-.82-2.88-1.65-5.87-2.34-9.59-.57-3.01-.92-5.74-1.09-8.26-.16-2.52-.15-4.84-.02-7.05.24-4.42.99-8.38,1.8-12.63.27-1.43.54-2.91.82-4.45-.77-2.16-1.51-4.54-2.17-7.42-.65-2.88-1.24-6.28-1.55-10.47-.13-1.66-.21-3.23-.25-4.72,0-.38-.01-.76-.02-1.13,0-.42,0-.83,0-1.23,0-.81.01-1.61.04-2.38.13-3.09.4-5.85.77-8.33.38-2.47.79-4.7,1.36-6.7.55-2.01,1.19-3.81,1.84-5.57-.12-.97-.22-1.92-.31-2.88-.04-.95-.15-1.9-.12-2.84-.02-2.57.29-5.16,1.4-7.48,1.1-2.33,2.96-4.22,5.28-5.64,2.34-1.42,5.12-2.51,8.52-3.2,3.37-.73,7.34-1.18,11.93-1.12ZM87.24,401.94c-.11.99-.2,2.03-.25,3.13-.11,2.66-.01,5.67.41,9.24.1.85.21,1.65.33,2.44.12.78.26,1.54.41,2.26.73,3.63,1.7,6.58,2.83,9.22.34-4.84.18-9.98-1.6-18.22-.56-2.6-1.18-4.85-1.77-6.88-.12-.4-.24-.79-.36-1.18ZM80.09,360.12c.04.69.09,1.41.16,2.17.06.56.12,1.15.18,1.76.05.41.1.82.15,1.25.14,1.07.3,2.23.5,3.47,1.01,6.01,2.17,10.35,3.47,14.03.38,1.07.77,2.09,1.16,3.08.36-3.13.35-6.59-.42-11.09-.05-.26-.09-.52-.14-.79-1.16-6.11-2.94-10.28-5.05-13.89ZM72.55,323.03c-.45,2.97-.57,6.29.01,10.23l.03.17c.7,4.44,1.79,7.88,3.1,10.8-.09-2.72-.34-5.94-.9-10.09-.61-4.62-1.38-8.13-2.24-11.12ZM70.43,291.11c-.1,1.19-.12,2.53-.04,4.07.3,5.2.97,9.02,1.78,12.24.68-2.97,1.01-6.14.5-9.94-.24-1.83-1.09-4.01-2.24-6.38ZM65.24,260.01c-.35,2.65-.47,5.42-.16,8.28v.08c.4,3.46,2.27,7.49,4.41,11.53.75-1.73,1.23-3.45.99-6.06-.31-3.56-2.66-8.51-5.24-13.83ZM62.02,223.96c-.66,3.47-1.02,7.29-.63,12.16.25,2.99,1.11,6.16,2.26,9.35.23-1.38.37-2.69.36-3.92-.1-6.95-.88-12.57-1.99-17.6ZM59.96,185.25c-.3,7.83.49,13.89,1.75,19.46.23-2.3.32-4.83.19-7.7-.19-4.99-.94-8.63-1.94-11.76ZM57.47,148.28c-.4,2.84-.58,6.07-.39,10.06v.13c.17,3.09.53,5.7,1,8,.37-2.74.51-5.84.29-10.18-.16-3.1-.48-5.68-.89-8.01ZM57.23,105.45c-.63,3.45-1.06,6.74-1.15,10.39-.1,3.65.21,7.65,1.13,12.48.11.55.22,1.08.32,1.6.73-3.41,1.15-7.33,1.12-12.53-.04-5.14-.63-8.79-1.41-11.94ZM55.93,60.41c-.47,2.33-.83,4.96-1.02,7.99-.1,1.51-.12,3.13-.1,4.84.02,1.64.11,3.38.25,5.24.2,2.62.49,4.89.85,6.91.22-2.41.42-5.02.54-7.89.25-6.78.02-12.17-.52-17.09Z"/>
        </g>
      </g>
    </g>
  </g>
</svg>